<?xml version="1.0" standalone="no"?>
<mlt LC_NUMERIC="C" version="7.30.0" title="Shotcut version 25.01.25" producer="main_bin">
  <profile description="PAL 4:3 DV or DVD" width="1920" height="1080" progressive="1" sample_aspect_num="1" sample_aspect_den="1" display_aspect_num="16" display_aspect_den="9" frame_rate_num="24" frame_rate_den="1" colorspace="709"/>
  <chain id="chain0" out="00:00:19.458">
    <property name="length">00:00:19.500</property>
    <property name="eof">pause</property>
    <property name="resource">C:/Users/dinet/Downloads/Telegram Desktop/2.m4a</property>
    <property name="mlt_service">avformat-novalidate</property>
    <property name="meta.media.nb_streams">1</property>
    <property name="meta.media.0.stream.type">audio</property>
    <property name="meta.media.0.codec.sample_fmt">fltp</property>
    <property name="meta.media.0.codec.sample_rate">44100</property>
    <property name="meta.media.0.codec.channels">1</property>
    <property name="meta.media.0.codec.layout">mono</property>
    <property name="meta.media.0.codec.name">aac</property>
    <property name="meta.media.0.codec.long_name">AAC (Advanced Audio Coding)</property>
    <property name="meta.media.0.codec.bit_rate">128008</property>
    <property name="meta.attr.0.stream.creation_time.markup">2025-01-30T11:26:58.000000Z</property>
    <property name="meta.attr.0.stream.language.markup">eng</property>
    <property name="meta.attr.0.stream.handler_name.markup">SoundHandle</property>
    <property name="meta.attr.0.stream.vendor_id.markup">[0][0][0][0]</property>
    <property name="meta.attr.major_brand.markup">3gp4</property>
    <property name="meta.attr.minor_version.markup">0</property>
    <property name="meta.attr.compatible_brands.markup">isom3gp4</property>
    <property name="meta.attr.creation_time.markup">2025-01-30T11:26:58.000000Z</property>
    <property name="meta.attr.com.android.version.markup">14</property>
    <property name="seekable">1</property>
    <property name="audio_index">0</property>
    <property name="video_index">-1</property>
    <property name="creation_time">2025-01-30T11:26:58</property>
    <property name="astream">0</property>
    <property name="shotcut:skipConvert">1</property>
    <property name="shotcut:hash">6d6f71e56630b3f71152fd93fec3bf52</property>
    <property name="ignore_points">0</property>
    <property name="mute_on_pause">0</property>
    <property name="shotcut:bins">All</property>
    <property name="xml">was here</property>
  </chain>
  <chain id="chain1" out="00:00:07.208">
    <property name="length">00:00:07.250</property>
    <property name="eof">pause</property>
    <property name="resource">C:/Users/dinet/Downloads/Telegram Desktop/5.m4a</property>
    <property name="mlt_service">avformat-novalidate</property>
    <property name="meta.media.nb_streams">1</property>
    <property name="meta.media.0.stream.type">audio</property>
    <property name="meta.media.0.codec.sample_fmt">fltp</property>
    <property name="meta.media.0.codec.sample_rate">44100</property>
    <property name="meta.media.0.codec.channels">1</property>
    <property name="meta.media.0.codec.layout">mono</property>
    <property name="meta.media.0.codec.name">aac</property>
    <property name="meta.media.0.codec.long_name">AAC (Advanced Audio Coding)</property>
    <property name="meta.media.0.codec.bit_rate">128012</property>
    <property name="meta.attr.0.stream.creation_time.markup">2025-01-30T11:32:12.000000Z</property>
    <property name="meta.attr.0.stream.language.markup">eng</property>
    <property name="meta.attr.0.stream.handler_name.markup">SoundHandle</property>
    <property name="meta.attr.0.stream.vendor_id.markup">[0][0][0][0]</property>
    <property name="meta.attr.major_brand.markup">3gp4</property>
    <property name="meta.attr.minor_version.markup">0</property>
    <property name="meta.attr.compatible_brands.markup">isom3gp4</property>
    <property name="meta.attr.creation_time.markup">2025-01-30T11:32:12.000000Z</property>
    <property name="meta.attr.com.android.version.markup">14</property>
    <property name="seekable">1</property>
    <property name="audio_index">0</property>
    <property name="video_index">-1</property>
    <property name="creation_time">2025-01-30T11:32:12</property>
    <property name="astream">0</property>
    <property name="shotcut:skipConvert">1</property>
    <property name="shotcut:bins">All</property>
    <property name="xml">was here</property>
    <property name="shotcut:hash">2d0c4d0d114d28df3575e97b10461cf1</property>
  </chain>
  <chain id="chain2" out="00:00:04.042">
    <property name="length">00:00:04.083</property>
    <property name="eof">pause</property>
    <property name="resource">C:/Users/dinet/Downloads/Telegram Desktop/9.m4a</property>
    <property name="mlt_service">avformat-novalidate</property>
    <property name="meta.media.nb_streams">1</property>
    <property name="meta.media.0.stream.type">audio</property>
    <property name="meta.media.0.codec.sample_fmt">fltp</property>
    <property name="meta.media.0.codec.sample_rate">44100</property>
    <property name="meta.media.0.codec.channels">1</property>
    <property name="meta.media.0.codec.layout">mono</property>
    <property name="meta.media.0.codec.name">aac</property>
    <property name="meta.media.0.codec.long_name">AAC (Advanced Audio Coding)</property>
    <property name="meta.media.0.codec.bit_rate">128045</property>
    <property name="meta.attr.0.stream.creation_time.markup">2025-01-30T13:17:07.000000Z</property>
    <property name="meta.attr.0.stream.language.markup">eng</property>
    <property name="meta.attr.0.stream.handler_name.markup">SoundHandle</property>
    <property name="meta.attr.0.stream.vendor_id.markup">[0][0][0][0]</property>
    <property name="meta.attr.major_brand.markup">3gp4</property>
    <property name="meta.attr.minor_version.markup">0</property>
    <property name="meta.attr.compatible_brands.markup">isom3gp4</property>
    <property name="meta.attr.creation_time.markup">2025-01-30T13:17:07.000000Z</property>
    <property name="meta.attr.com.android.version.markup">14</property>
    <property name="seekable">1</property>
    <property name="audio_index">0</property>
    <property name="video_index">-1</property>
    <property name="creation_time">2025-01-30T13:17:07</property>
    <property name="astream">0</property>
    <property name="shotcut:skipConvert">1</property>
    <property name="shotcut:bins">All</property>
    <property name="xml">was here</property>
    <property name="shotcut:hash">56b9c1b551bc52ae74ef20ba77fc0824</property>
  </chain>
  <chain id="chain3" out="00:00:17.375">
    <property name="length">00:00:17.417</property>
    <property name="eof">pause</property>
    <property name="resource">C:/Users/dinet/Downloads/Telegram Desktop/13.m4a</property>
    <property name="mlt_service">avformat-novalidate</property>
    <property name="meta.media.nb_streams">1</property>
    <property name="meta.media.0.stream.type">audio</property>
    <property name="meta.media.0.codec.sample_fmt">fltp</property>
    <property name="meta.media.0.codec.sample_rate">44100</property>
    <property name="meta.media.0.codec.channels">1</property>
    <property name="meta.media.0.codec.layout">mono</property>
    <property name="meta.media.0.codec.name">aac</property>
    <property name="meta.media.0.codec.long_name">AAC (Advanced Audio Coding)</property>
    <property name="meta.media.0.codec.bit_rate">128015</property>
    <property name="meta.attr.0.stream.creation_time.markup">2025-01-30T13:33:41.000000Z</property>
    <property name="meta.attr.0.stream.language.markup">eng</property>
    <property name="meta.attr.0.stream.handler_name.markup">SoundHandle</property>
    <property name="meta.attr.0.stream.vendor_id.markup">[0][0][0][0]</property>
    <property name="meta.attr.major_brand.markup">3gp4</property>
    <property name="meta.attr.minor_version.markup">0</property>
    <property name="meta.attr.compatible_brands.markup">isom3gp4</property>
    <property name="meta.attr.creation_time.markup">2025-01-30T13:33:41.000000Z</property>
    <property name="meta.attr.com.android.version.markup">14</property>
    <property name="seekable">1</property>
    <property name="audio_index">0</property>
    <property name="video_index">-1</property>
    <property name="creation_time">2025-01-30T13:33:41</property>
    <property name="astream">0</property>
    <property name="shotcut:skipConvert">1</property>
    <property name="shotcut:bins">All</property>
    <property name="xml">was here</property>
    <property name="shotcut:hash">7eed12a6b208f2be8f779eee4672ef56</property>
  </chain>
  <chain id="chain4" out="00:00:17.833">
    <property name="length">00:00:17.875</property>
    <property name="eof">pause</property>
    <property name="resource">C:/Users/dinet/Downloads/Telegram Desktop/11.m4a</property>
    <property name="mlt_service">avformat-novalidate</property>
    <property name="meta.media.nb_streams">1</property>
    <property name="meta.media.0.stream.type">audio</property>
    <property name="meta.media.0.codec.sample_fmt">fltp</property>
    <property name="meta.media.0.codec.sample_rate">44100</property>
    <property name="meta.media.0.codec.channels">1</property>
    <property name="meta.media.0.codec.layout">mono</property>
    <property name="meta.media.0.codec.name">aac</property>
    <property name="meta.media.0.codec.long_name">AAC (Advanced Audio Coding)</property>
    <property name="meta.media.0.codec.bit_rate">128061</property>
    <property name="meta.attr.0.stream.creation_time.markup">2025-01-30T13:30:30.000000Z</property>
    <property name="meta.attr.0.stream.language.markup">eng</property>
    <property name="meta.attr.0.stream.handler_name.markup">SoundHandle</property>
    <property name="meta.attr.0.stream.vendor_id.markup">[0][0][0][0]</property>
    <property name="meta.attr.major_brand.markup">3gp4</property>
    <property name="meta.attr.minor_version.markup">0</property>
    <property name="meta.attr.compatible_brands.markup">isom3gp4</property>
    <property name="meta.attr.creation_time.markup">2025-01-30T13:30:30.000000Z</property>
    <property name="meta.attr.com.android.version.markup">14</property>
    <property name="seekable">1</property>
    <property name="audio_index">0</property>
    <property name="video_index">-1</property>
    <property name="creation_time">2025-01-30T13:30:30</property>
    <property name="astream">0</property>
    <property name="shotcut:skipConvert">1</property>
    <property name="shotcut:bins">All</property>
    <property name="xml">was here</property>
    <property name="shotcut:hash">e433c0e369422fdf7ff10690150a0385</property>
  </chain>
  <chain id="chain5" out="00:00:14.625">
    <property name="length">00:00:14.667</property>
    <property name="eof">pause</property>
    <property name="resource">C:/Users/dinet/Downloads/Telegram Desktop/25.m4a</property>
    <property name="mlt_service">avformat-novalidate</property>
    <property name="meta.media.nb_streams">1</property>
    <property name="meta.media.0.stream.type">audio</property>
    <property name="meta.media.0.codec.sample_fmt">fltp</property>
    <property name="meta.media.0.codec.sample_rate">44100</property>
    <property name="meta.media.0.codec.channels">1</property>
    <property name="meta.media.0.codec.layout">mono</property>
    <property name="meta.media.0.codec.name">aac</property>
    <property name="meta.media.0.codec.long_name">AAC (Advanced Audio Coding)</property>
    <property name="meta.media.0.codec.bit_rate">128015</property>
    <property name="meta.attr.0.stream.creation_time.markup">2025-01-30T14:26:56.000000Z</property>
    <property name="meta.attr.0.stream.language.markup">eng</property>
    <property name="meta.attr.0.stream.handler_name.markup">SoundHandle</property>
    <property name="meta.attr.0.stream.vendor_id.markup">[0][0][0][0]</property>
    <property name="meta.attr.major_brand.markup">3gp4</property>
    <property name="meta.attr.minor_version.markup">0</property>
    <property name="meta.attr.compatible_brands.markup">isom3gp4</property>
    <property name="meta.attr.creation_time.markup">2025-01-30T14:26:56.000000Z</property>
    <property name="meta.attr.com.android.version.markup">14</property>
    <property name="seekable">1</property>
    <property name="audio_index">0</property>
    <property name="video_index">-1</property>
    <property name="creation_time">2025-01-30T14:26:56</property>
    <property name="astream">0</property>
    <property name="shotcut:skipConvert">1</property>
    <property name="shotcut:bins">All</property>
    <property name="xml">was here</property>
    <property name="shotcut:hash">b007762bb174034a62a24f99c88a3973</property>
  </chain>
  <chain id="chain6" out="00:00:15.917">
    <property name="length">00:00:15.958</property>
    <property name="eof">pause</property>
    <property name="resource">C:/Users/dinet/Downloads/Telegram Desktop/20.m4a</property>
    <property name="mlt_service">avformat-novalidate</property>
    <property name="meta.media.nb_streams">1</property>
    <property name="meta.media.0.stream.type">audio</property>
    <property name="meta.media.0.codec.sample_fmt">fltp</property>
    <property name="meta.media.0.codec.sample_rate">44100</property>
    <property name="meta.media.0.codec.channels">1</property>
    <property name="meta.media.0.codec.layout">mono</property>
    <property name="meta.media.0.codec.name">aac</property>
    <property name="meta.media.0.codec.long_name">AAC (Advanced Audio Coding)</property>
    <property name="meta.media.0.codec.bit_rate">128007</property>
    <property name="meta.attr.0.stream.creation_time.markup">2025-01-30T14:19:27.000000Z</property>
    <property name="meta.attr.0.stream.language.markup">eng</property>
    <property name="meta.attr.0.stream.handler_name.markup">SoundHandle</property>
    <property name="meta.attr.0.stream.vendor_id.markup">[0][0][0][0]</property>
    <property name="meta.attr.major_brand.markup">3gp4</property>
    <property name="meta.attr.minor_version.markup">0</property>
    <property name="meta.attr.compatible_brands.markup">isom3gp4</property>
    <property name="meta.attr.creation_time.markup">2025-01-30T14:19:27.000000Z</property>
    <property name="meta.attr.com.android.version.markup">14</property>
    <property name="seekable">1</property>
    <property name="audio_index">0</property>
    <property name="video_index">-1</property>
    <property name="creation_time">2025-01-30T14:19:27</property>
    <property name="astream">0</property>
    <property name="shotcut:skipConvert">1</property>
    <property name="shotcut:bins">All</property>
    <property name="xml">was here</property>
    <property name="shotcut:hash">23624477570c39661c10401eae56e6ae</property>
  </chain>
  <chain id="chain7" out="00:00:26.208">
    <property name="length">00:00:26.250</property>
    <property name="eof">pause</property>
    <property name="resource">C:/Users/dinet/Downloads/Telegram Desktop/7.m4a</property>
    <property name="mlt_service">avformat-novalidate</property>
    <property name="meta.media.nb_streams">1</property>
    <property name="meta.media.0.stream.type">audio</property>
    <property name="meta.media.0.codec.sample_fmt">fltp</property>
    <property name="meta.media.0.codec.sample_rate">44100</property>
    <property name="meta.media.0.codec.channels">1</property>
    <property name="meta.media.0.codec.layout">mono</property>
    <property name="meta.media.0.codec.name">aac</property>
    <property name="meta.media.0.codec.long_name">AAC (Advanced Audio Coding)</property>
    <property name="meta.media.0.codec.bit_rate">128015</property>
    <property name="meta.attr.0.stream.creation_time.markup">2025-01-30T13:06:05.000000Z</property>
    <property name="meta.attr.0.stream.language.markup">eng</property>
    <property name="meta.attr.0.stream.handler_name.markup">SoundHandle</property>
    <property name="meta.attr.0.stream.vendor_id.markup">[0][0][0][0]</property>
    <property name="meta.attr.major_brand.markup">3gp4</property>
    <property name="meta.attr.minor_version.markup">0</property>
    <property name="meta.attr.compatible_brands.markup">isom3gp4</property>
    <property name="meta.attr.creation_time.markup">2025-01-30T13:06:05.000000Z</property>
    <property name="meta.attr.com.android.version.markup">14</property>
    <property name="seekable">1</property>
    <property name="audio_index">0</property>
    <property name="video_index">-1</property>
    <property name="creation_time">2025-01-30T13:06:05</property>
    <property name="astream">0</property>
    <property name="shotcut:skipConvert">1</property>
    <property name="shotcut:bins">All</property>
    <property name="xml">was here</property>
    <property name="shotcut:hash">840cfe1f2c7e1563715bb3eac98a3685</property>
  </chain>
  <chain id="chain8" out="00:00:04.042">
    <property name="length">00:00:04.083</property>
    <property name="eof">pause</property>
    <property name="resource">C:/Users/dinet/Downloads/Telegram Desktop/12.m4a</property>
    <property name="mlt_service">avformat-novalidate</property>
    <property name="meta.media.nb_streams">1</property>
    <property name="meta.media.0.stream.type">audio</property>
    <property name="meta.media.0.codec.sample_fmt">fltp</property>
    <property name="meta.media.0.codec.sample_rate">44100</property>
    <property name="meta.media.0.codec.channels">1</property>
    <property name="meta.media.0.codec.layout">mono</property>
    <property name="meta.media.0.codec.name">aac</property>
    <property name="meta.media.0.codec.long_name">AAC (Advanced Audio Coding)</property>
    <property name="meta.media.0.codec.bit_rate">128286</property>
    <property name="meta.attr.0.stream.creation_time.markup">2025-01-30T13:32:43.000000Z</property>
    <property name="meta.attr.0.stream.language.markup">eng</property>
    <property name="meta.attr.0.stream.handler_name.markup">SoundHandle</property>
    <property name="meta.attr.0.stream.vendor_id.markup">[0][0][0][0]</property>
    <property name="meta.attr.major_brand.markup">3gp4</property>
    <property name="meta.attr.minor_version.markup">0</property>
    <property name="meta.attr.compatible_brands.markup">isom3gp4</property>
    <property name="meta.attr.creation_time.markup">2025-01-30T13:32:43.000000Z</property>
    <property name="meta.attr.com.android.version.markup">14</property>
    <property name="seekable">1</property>
    <property name="audio_index">0</property>
    <property name="video_index">-1</property>
    <property name="creation_time">2025-01-30T13:32:43</property>
    <property name="astream">0</property>
    <property name="shotcut:skipConvert">1</property>
    <property name="shotcut:bins">All</property>
    <property name="xml">was here</property>
    <property name="shotcut:hash">557588947116ebe03dfb2f0c9236c501</property>
  </chain>
  <chain id="chain9" out="00:00:12.625">
    <property name="length">00:00:12.667</property>
    <property name="eof">pause</property>
    <property name="resource">C:/Users/dinet/Downloads/Telegram Desktop/17.m4a</property>
    <property name="mlt_service">avformat-novalidate</property>
    <property name="meta.media.nb_streams">1</property>
    <property name="meta.media.0.stream.type">audio</property>
    <property name="meta.media.0.codec.sample_fmt">fltp</property>
    <property name="meta.media.0.codec.sample_rate">44100</property>
    <property name="meta.media.0.codec.channels">1</property>
    <property name="meta.media.0.codec.layout">mono</property>
    <property name="meta.media.0.codec.name">aac</property>
    <property name="meta.media.0.codec.long_name">AAC (Advanced Audio Coding)</property>
    <property name="meta.media.0.codec.bit_rate">128051</property>
    <property name="meta.attr.0.stream.creation_time.markup">2025-01-30T14:05:33.000000Z</property>
    <property name="meta.attr.0.stream.language.markup">eng</property>
    <property name="meta.attr.0.stream.handler_name.markup">SoundHandle</property>
    <property name="meta.attr.0.stream.vendor_id.markup">[0][0][0][0]</property>
    <property name="meta.attr.major_brand.markup">3gp4</property>
    <property name="meta.attr.minor_version.markup">0</property>
    <property name="meta.attr.compatible_brands.markup">isom3gp4</property>
    <property name="meta.attr.creation_time.markup">2025-01-30T14:05:33.000000Z</property>
    <property name="meta.attr.com.android.version.markup">14</property>
    <property name="seekable">1</property>
    <property name="audio_index">0</property>
    <property name="video_index">-1</property>
    <property name="creation_time">2025-01-30T14:05:33</property>
    <property name="astream">0</property>
    <property name="shotcut:skipConvert">1</property>
    <property name="shotcut:bins">All</property>
    <property name="xml">was here</property>
    <property name="shotcut:hash">bfa94a5c6dbf3185fe8894c750c0f55c</property>
  </chain>
  <chain id="chain10" out="00:00:24.542">
    <property name="length">00:00:24.583</property>
    <property name="eof">pause</property>
    <property name="resource">C:/Users/dinet/Downloads/Telegram Desktop/21.m4a</property>
    <property name="mlt_service">avformat-novalidate</property>
    <property name="meta.media.nb_streams">1</property>
    <property name="meta.media.0.stream.type">audio</property>
    <property name="meta.media.0.codec.sample_fmt">fltp</property>
    <property name="meta.media.0.codec.sample_rate">44100</property>
    <property name="meta.media.0.codec.channels">1</property>
    <property name="meta.media.0.codec.layout">mono</property>
    <property name="meta.media.0.codec.name">aac</property>
    <property name="meta.media.0.codec.long_name">AAC (Advanced Audio Coding)</property>
    <property name="meta.media.0.codec.bit_rate">128015</property>
    <property name="meta.attr.0.stream.creation_time.markup">2025-01-30T14:20:46.000000Z</property>
    <property name="meta.attr.0.stream.language.markup">eng</property>
    <property name="meta.attr.0.stream.vendor_id.markup">[0][0][0][0]</property>
    <property name="meta.attr.major_brand.markup">3gp4</property>
    <property name="meta.attr.minor_version.markup">0</property>
    <property name="meta.attr.compatible_brands.markup">isom3gp4</property>
    <property name="meta.attr.creation_time.markup">2025-01-30T14:21:17.000000Z</property>
    <property name="seekable">1</property>
    <property name="audio_index">0</property>
    <property name="video_index">-1</property>
    <property name="creation_time">2025-01-30T14:21:17</property>
    <property name="astream">0</property>
    <property name="shotcut:skipConvert">1</property>
    <property name="shotcut:bins">All</property>
    <property name="xml">was here</property>
    <property name="shotcut:hash">938d9d8e4775389c6c875a60d1c902c2</property>
  </chain>
  <chain id="chain11" out="00:00:20.708">
    <property name="length">00:00:20.750</property>
    <property name="eof">pause</property>
    <property name="resource">C:/Users/dinet/Downloads/Telegram Desktop/8.m4a</property>
    <property name="mlt_service">avformat-novalidate</property>
    <property name="meta.media.nb_streams">1</property>
    <property name="meta.media.0.stream.type">audio</property>
    <property name="meta.media.0.codec.sample_fmt">fltp</property>
    <property name="meta.media.0.codec.sample_rate">44100</property>
    <property name="meta.media.0.codec.channels">1</property>
    <property name="meta.media.0.codec.layout">mono</property>
    <property name="meta.media.0.codec.name">aac</property>
    <property name="meta.media.0.codec.long_name">AAC (Advanced Audio Coding)</property>
    <property name="meta.media.0.codec.bit_rate">128016</property>
    <property name="meta.attr.0.stream.creation_time.markup">2025-01-30T13:15:37.000000Z</property>
    <property name="meta.attr.0.stream.language.markup">eng</property>
    <property name="meta.attr.0.stream.handler_name.markup">SoundHandle</property>
    <property name="meta.attr.0.stream.vendor_id.markup">[0][0][0][0]</property>
    <property name="meta.attr.major_brand.markup">3gp4</property>
    <property name="meta.attr.minor_version.markup">0</property>
    <property name="meta.attr.compatible_brands.markup">isom3gp4</property>
    <property name="meta.attr.creation_time.markup">2025-01-30T13:15:37.000000Z</property>
    <property name="meta.attr.com.android.version.markup">14</property>
    <property name="seekable">1</property>
    <property name="audio_index">0</property>
    <property name="video_index">-1</property>
    <property name="creation_time">2025-01-30T13:15:37</property>
    <property name="astream">0</property>
    <property name="shotcut:skipConvert">1</property>
    <property name="shotcut:bins">All</property>
    <property name="xml">was here</property>
    <property name="shotcut:hash">3ea1fd7d3b7ca8a8f43cd3a8f6be6a5b</property>
  </chain>
  <chain id="chain12" out="00:00:05.708">
    <property name="length">00:00:05.750</property>
    <property name="eof">pause</property>
    <property name="resource">C:/Users/dinet/Downloads/Telegram Desktop/10.m4a</property>
    <property name="mlt_service">avformat-novalidate</property>
    <property name="meta.media.nb_streams">1</property>
    <property name="meta.media.0.stream.type">audio</property>
    <property name="meta.media.0.codec.sample_fmt">fltp</property>
    <property name="meta.media.0.codec.sample_rate">44100</property>
    <property name="meta.media.0.codec.channels">1</property>
    <property name="meta.media.0.codec.layout">mono</property>
    <property name="meta.media.0.codec.name">aac</property>
    <property name="meta.media.0.codec.long_name">AAC (Advanced Audio Coding)</property>
    <property name="meta.media.0.codec.bit_rate">128018</property>
    <property name="meta.attr.0.stream.creation_time.markup">2025-01-30T13:22:03.000000Z</property>
    <property name="meta.attr.0.stream.language.markup">eng</property>
    <property name="meta.attr.0.stream.handler_name.markup">SoundHandle</property>
    <property name="meta.attr.0.stream.vendor_id.markup">[0][0][0][0]</property>
    <property name="meta.attr.major_brand.markup">3gp4</property>
    <property name="meta.attr.minor_version.markup">0</property>
    <property name="meta.attr.compatible_brands.markup">isom3gp4</property>
    <property name="meta.attr.creation_time.markup">2025-01-30T13:22:03.000000Z</property>
    <property name="meta.attr.com.android.version.markup">14</property>
    <property name="seekable">1</property>
    <property name="audio_index">0</property>
    <property name="video_index">-1</property>
    <property name="creation_time">2025-01-30T13:22:03</property>
    <property name="astream">0</property>
    <property name="shotcut:skipConvert">1</property>
    <property name="shotcut:bins">All</property>
    <property name="xml">was here</property>
    <property name="shotcut:hash">4e5c4a6f6ccd5e67ef42d234070e4fbf</property>
  </chain>
  <chain id="chain13" out="00:00:10.250">
    <property name="length">00:00:10.292</property>
    <property name="eof">pause</property>
    <property name="resource">C:/Users/dinet/Downloads/Telegram Desktop/19.m4a</property>
    <property name="mlt_service">avformat-novalidate</property>
    <property name="meta.media.nb_streams">1</property>
    <property name="meta.media.0.stream.type">audio</property>
    <property name="meta.media.0.codec.sample_fmt">fltp</property>
    <property name="meta.media.0.codec.sample_rate">44100</property>
    <property name="meta.media.0.codec.channels">1</property>
    <property name="meta.media.0.codec.layout">mono</property>
    <property name="meta.media.0.codec.name">aac</property>
    <property name="meta.media.0.codec.long_name">AAC (Advanced Audio Coding)</property>
    <property name="meta.media.0.codec.bit_rate">128036</property>
    <property name="meta.attr.0.stream.creation_time.markup">2025-01-30T14:06:45.000000Z</property>
    <property name="meta.attr.0.stream.language.markup">eng</property>
    <property name="meta.attr.0.stream.handler_name.markup">SoundHandle</property>
    <property name="meta.attr.0.stream.vendor_id.markup">[0][0][0][0]</property>
    <property name="meta.attr.major_brand.markup">3gp4</property>
    <property name="meta.attr.minor_version.markup">0</property>
    <property name="meta.attr.compatible_brands.markup">isom3gp4</property>
    <property name="meta.attr.creation_time.markup">2025-01-30T14:06:45.000000Z</property>
    <property name="meta.attr.com.android.version.markup">14</property>
    <property name="seekable">1</property>
    <property name="audio_index">0</property>
    <property name="video_index">-1</property>
    <property name="creation_time">2025-01-30T14:06:45</property>
    <property name="astream">0</property>
    <property name="shotcut:skipConvert">1</property>
    <property name="shotcut:bins">All</property>
    <property name="xml">was here</property>
    <property name="shotcut:hash">5bdef04341da32d5394da4eaaa261901</property>
  </chain>
  <chain id="chain14" out="00:00:31.250">
    <property name="length">00:00:31.292</property>
    <property name="eof">pause</property>
    <property name="resource">C:/Users/dinet/Downloads/Telegram Desktop/3.m4a</property>
    <property name="mlt_service">avformat-novalidate</property>
    <property name="meta.media.nb_streams">1</property>
    <property name="meta.media.0.stream.type">audio</property>
    <property name="meta.media.0.codec.sample_fmt">fltp</property>
    <property name="meta.media.0.codec.sample_rate">44100</property>
    <property name="meta.media.0.codec.channels">1</property>
    <property name="meta.media.0.codec.layout">mono</property>
    <property name="meta.media.0.codec.name">aac</property>
    <property name="meta.media.0.codec.long_name">AAC (Advanced Audio Coding)</property>
    <property name="meta.media.0.codec.bit_rate">128012</property>
    <property name="meta.attr.0.stream.creation_time.markup">2025-01-30T11:27:49.000000Z</property>
    <property name="meta.attr.0.stream.language.markup">eng</property>
    <property name="meta.attr.0.stream.handler_name.markup">SoundHandle</property>
    <property name="meta.attr.0.stream.vendor_id.markup">[0][0][0][0]</property>
    <property name="meta.attr.major_brand.markup">3gp4</property>
    <property name="meta.attr.minor_version.markup">0</property>
    <property name="meta.attr.compatible_brands.markup">isom3gp4</property>
    <property name="meta.attr.creation_time.markup">2025-01-30T11:27:49.000000Z</property>
    <property name="meta.attr.com.android.version.markup">14</property>
    <property name="seekable">1</property>
    <property name="audio_index">0</property>
    <property name="video_index">-1</property>
    <property name="creation_time">2025-01-30T11:27:49</property>
    <property name="astream">0</property>
    <property name="shotcut:skipConvert">1</property>
    <property name="shotcut:bins">All</property>
    <property name="xml">was here</property>
    <property name="shotcut:hash">8a4779acf868a8997e6d089ddc28d304</property>
  </chain>
  <chain id="chain15" out="00:00:14.208">
    <property name="length">00:00:14.250</property>
    <property name="eof">pause</property>
    <property name="resource">C:/Users/dinet/Downloads/Telegram Desktop/16.m4a</property>
    <property name="mlt_service">avformat-novalidate</property>
    <property name="meta.media.nb_streams">1</property>
    <property name="meta.media.0.stream.type">audio</property>
    <property name="meta.media.0.codec.sample_fmt">fltp</property>
    <property name="meta.media.0.codec.sample_rate">44100</property>
    <property name="meta.media.0.codec.channels">1</property>
    <property name="meta.media.0.codec.layout">mono</property>
    <property name="meta.media.0.codec.name">aac</property>
    <property name="meta.media.0.codec.long_name">AAC (Advanced Audio Coding)</property>
    <property name="meta.media.0.codec.bit_rate">128058</property>
    <property name="meta.attr.0.stream.creation_time.markup">2025-01-30T14:02:33.000000Z</property>
    <property name="meta.attr.0.stream.language.markup">eng</property>
    <property name="meta.attr.0.stream.handler_name.markup">SoundHandle</property>
    <property name="meta.attr.0.stream.vendor_id.markup">[0][0][0][0]</property>
    <property name="meta.attr.major_brand.markup">3gp4</property>
    <property name="meta.attr.minor_version.markup">0</property>
    <property name="meta.attr.compatible_brands.markup">isom3gp4</property>
    <property name="meta.attr.creation_time.markup">2025-01-30T14:02:33.000000Z</property>
    <property name="meta.attr.com.android.version.markup">14</property>
    <property name="seekable">1</property>
    <property name="audio_index">0</property>
    <property name="video_index">-1</property>
    <property name="creation_time">2025-01-30T14:02:33</property>
    <property name="astream">0</property>
    <property name="shotcut:skipConvert">1</property>
    <property name="shotcut:bins">All</property>
    <property name="xml">was here</property>
    <property name="shotcut:hash">ba6b4b92d5176af6fa6aa5088c446729</property>
  </chain>
  <chain id="chain16" out="00:00:13.250">
    <property name="length">00:00:13.292</property>
    <property name="eof">pause</property>
    <property name="resource">C:/Users/dinet/Downloads/Telegram Desktop/15.m4a</property>
    <property name="mlt_service">avformat-novalidate</property>
    <property name="meta.media.nb_streams">1</property>
    <property name="meta.media.0.stream.type">audio</property>
    <property name="meta.media.0.codec.sample_fmt">fltp</property>
    <property name="meta.media.0.codec.sample_rate">44100</property>
    <property name="meta.media.0.codec.channels">1</property>
    <property name="meta.media.0.codec.layout">mono</property>
    <property name="meta.media.0.codec.name">aac</property>
    <property name="meta.media.0.codec.long_name">AAC (Advanced Audio Coding)</property>
    <property name="meta.media.0.codec.bit_rate">128021</property>
    <property name="meta.attr.0.stream.creation_time.markup">2025-01-30T13:43:05.000000Z</property>
    <property name="meta.attr.0.stream.language.markup">eng</property>
    <property name="meta.attr.0.stream.handler_name.markup">SoundHandle</property>
    <property name="meta.attr.0.stream.vendor_id.markup">[0][0][0][0]</property>
    <property name="meta.attr.major_brand.markup">3gp4</property>
    <property name="meta.attr.minor_version.markup">0</property>
    <property name="meta.attr.compatible_brands.markup">isom3gp4</property>
    <property name="meta.attr.creation_time.markup">2025-01-30T13:43:05.000000Z</property>
    <property name="meta.attr.com.android.version.markup">14</property>
    <property name="seekable">1</property>
    <property name="audio_index">0</property>
    <property name="video_index">-1</property>
    <property name="creation_time">2025-01-30T13:43:05</property>
    <property name="astream">0</property>
    <property name="shotcut:skipConvert">1</property>
    <property name="shotcut:bins">All</property>
    <property name="xml">was here</property>
    <property name="shotcut:hash">22119f56a0a4b27cbdd996193f09c172</property>
  </chain>
  <chain id="chain17" out="00:00:24.667">
    <property name="length">00:00:24.708</property>
    <property name="eof">pause</property>
    <property name="resource">C:/Users/dinet/Downloads/Telegram Desktop/6.m4a</property>
    <property name="mlt_service">avformat-novalidate</property>
    <property name="meta.media.nb_streams">1</property>
    <property name="meta.media.0.stream.type">audio</property>
    <property name="meta.media.0.codec.sample_fmt">fltp</property>
    <property name="meta.media.0.codec.sample_rate">44100</property>
    <property name="meta.media.0.codec.channels">1</property>
    <property name="meta.media.0.codec.layout">mono</property>
    <property name="meta.media.0.codec.name">aac</property>
    <property name="meta.media.0.codec.long_name">AAC (Advanced Audio Coding)</property>
    <property name="meta.media.0.codec.bit_rate">128020</property>
    <property name="meta.attr.0.stream.creation_time.markup">2025-01-30T11:34:28.000000Z</property>
    <property name="meta.attr.0.stream.language.markup">eng</property>
    <property name="meta.attr.0.stream.handler_name.markup">SoundHandle</property>
    <property name="meta.attr.0.stream.vendor_id.markup">[0][0][0][0]</property>
    <property name="meta.attr.major_brand.markup">3gp4</property>
    <property name="meta.attr.minor_version.markup">0</property>
    <property name="meta.attr.compatible_brands.markup">isom3gp4</property>
    <property name="meta.attr.creation_time.markup">2025-01-30T11:34:28.000000Z</property>
    <property name="meta.attr.com.android.version.markup">14</property>
    <property name="seekable">1</property>
    <property name="audio_index">0</property>
    <property name="video_index">-1</property>
    <property name="creation_time">2025-01-30T11:34:28</property>
    <property name="astream">0</property>
    <property name="shotcut:skipConvert">1</property>
    <property name="shotcut:bins">All</property>
    <property name="xml">was here</property>
    <property name="shotcut:hash">b15bf1c6470e90b6cb2a1762393b6baf</property>
  </chain>
  <chain id="chain18" out="00:00:04.958">
    <property name="length">00:00:05.000</property>
    <property name="eof">pause</property>
    <property name="resource">C:/Users/dinet/Downloads/Telegram Desktop/26.m4a</property>
    <property name="mlt_service">avformat-novalidate</property>
    <property name="meta.media.nb_streams">1</property>
    <property name="meta.media.0.stream.type">audio</property>
    <property name="meta.media.0.codec.sample_fmt">fltp</property>
    <property name="meta.media.0.codec.sample_rate">44100</property>
    <property name="meta.media.0.codec.channels">1</property>
    <property name="meta.media.0.codec.layout">mono</property>
    <property name="meta.media.0.codec.name">aac</property>
    <property name="meta.media.0.codec.long_name">AAC (Advanced Audio Coding)</property>
    <property name="meta.media.0.codec.bit_rate">128076</property>
    <property name="meta.attr.0.stream.creation_time.markup">2025-01-30T14:28:19.000000Z</property>
    <property name="meta.attr.0.stream.language.markup">eng</property>
    <property name="meta.attr.0.stream.handler_name.markup">SoundHandle</property>
    <property name="meta.attr.0.stream.vendor_id.markup">[0][0][0][0]</property>
    <property name="meta.attr.major_brand.markup">3gp4</property>
    <property name="meta.attr.minor_version.markup">0</property>
    <property name="meta.attr.compatible_brands.markup">isom3gp4</property>
    <property name="meta.attr.creation_time.markup">2025-01-30T14:28:19.000000Z</property>
    <property name="meta.attr.com.android.version.markup">14</property>
    <property name="seekable">1</property>
    <property name="audio_index">0</property>
    <property name="video_index">-1</property>
    <property name="creation_time">2025-01-30T14:28:19</property>
    <property name="astream">0</property>
    <property name="shotcut:skipConvert">1</property>
    <property name="shotcut:bins">All</property>
    <property name="xml">was here</property>
    <property name="shotcut:hash">1e3bae6b9d504685677438cfeab45f40</property>
  </chain>
  <chain id="chain19" out="00:00:07.583">
    <property name="length">00:00:07.625</property>
    <property name="eof">pause</property>
    <property name="resource">C:/Users/dinet/Downloads/Telegram Desktop/14.m4a</property>
    <property name="mlt_service">avformat-novalidate</property>
    <property name="meta.media.nb_streams">1</property>
    <property name="meta.media.0.stream.type">audio</property>
    <property name="meta.media.0.codec.sample_fmt">fltp</property>
    <property name="meta.media.0.codec.sample_rate">44100</property>
    <property name="meta.media.0.codec.channels">1</property>
    <property name="meta.media.0.codec.layout">mono</property>
    <property name="meta.media.0.codec.name">aac</property>
    <property name="meta.media.0.codec.long_name">AAC (Advanced Audio Coding)</property>
    <property name="meta.media.0.codec.bit_rate">128031</property>
    <property name="meta.attr.0.stream.creation_time.markup">2025-01-30T13:37:57.000000Z</property>
    <property name="meta.attr.0.stream.language.markup">eng</property>
    <property name="meta.attr.0.stream.handler_name.markup">SoundHandle</property>
    <property name="meta.attr.0.stream.vendor_id.markup">[0][0][0][0]</property>
    <property name="meta.attr.major_brand.markup">3gp4</property>
    <property name="meta.attr.minor_version.markup">0</property>
    <property name="meta.attr.compatible_brands.markup">isom3gp4</property>
    <property name="meta.attr.creation_time.markup">2025-01-30T13:37:57.000000Z</property>
    <property name="meta.attr.com.android.version.markup">14</property>
    <property name="seekable">1</property>
    <property name="audio_index">0</property>
    <property name="video_index">-1</property>
    <property name="creation_time">2025-01-30T13:37:57</property>
    <property name="astream">0</property>
    <property name="shotcut:skipConvert">1</property>
    <property name="shotcut:bins">All</property>
    <property name="xml">was here</property>
    <property name="shotcut:hash">ec0550ea3c6dedcd64e5c1863b52fb7e</property>
  </chain>
  <chain id="chain20" out="00:00:05.792">
    <property name="length">00:00:05.833</property>
    <property name="eof">pause</property>
    <property name="resource">C:/Users/dinet/Downloads/Telegram Desktop/23.m4a</property>
    <property name="mlt_service">avformat-novalidate</property>
    <property name="meta.media.nb_streams">1</property>
    <property name="meta.media.0.stream.type">audio</property>
    <property name="meta.media.0.codec.sample_fmt">fltp</property>
    <property name="meta.media.0.codec.sample_rate">44100</property>
    <property name="meta.media.0.codec.channels">1</property>
    <property name="meta.media.0.codec.layout">mono</property>
    <property name="meta.media.0.codec.name">aac</property>
    <property name="meta.media.0.codec.long_name">AAC (Advanced Audio Coding)</property>
    <property name="meta.media.0.codec.bit_rate">128050</property>
    <property name="meta.attr.0.stream.creation_time.markup">2025-01-30T14:24:10.000000Z</property>
    <property name="meta.attr.0.stream.language.markup">eng</property>
    <property name="meta.attr.0.stream.handler_name.markup">SoundHandle</property>
    <property name="meta.attr.0.stream.vendor_id.markup">[0][0][0][0]</property>
    <property name="meta.attr.major_brand.markup">3gp4</property>
    <property name="meta.attr.minor_version.markup">0</property>
    <property name="meta.attr.compatible_brands.markup">isom3gp4</property>
    <property name="meta.attr.creation_time.markup">2025-01-30T14:24:10.000000Z</property>
    <property name="meta.attr.com.android.version.markup">14</property>
    <property name="seekable">1</property>
    <property name="audio_index">0</property>
    <property name="video_index">-1</property>
    <property name="creation_time">2025-01-30T14:24:10</property>
    <property name="astream">0</property>
    <property name="shotcut:skipConvert">1</property>
    <property name="shotcut:bins">All</property>
    <property name="xml">was here</property>
    <property name="shotcut:hash">a051a19331c8825034124d313375cb6e</property>
  </chain>
  <chain id="chain21" out="00:00:03.833">
    <property name="length">00:00:03.875</property>
    <property name="eof">pause</property>
    <property name="resource">C:/Users/dinet/Downloads/Telegram Desktop/22.m4a</property>
    <property name="mlt_service">avformat-novalidate</property>
    <property name="meta.media.nb_streams">1</property>
    <property name="meta.media.0.stream.type">audio</property>
    <property name="meta.media.0.codec.sample_fmt">fltp</property>
    <property name="meta.media.0.codec.sample_rate">44100</property>
    <property name="meta.media.0.codec.channels">1</property>
    <property name="meta.media.0.codec.layout">mono</property>
    <property name="meta.media.0.codec.name">aac</property>
    <property name="meta.media.0.codec.long_name">AAC (Advanced Audio Coding)</property>
    <property name="meta.media.0.codec.bit_rate">128082</property>
    <property name="meta.attr.0.stream.creation_time.markup">2025-01-30T14:21:59.000000Z</property>
    <property name="meta.attr.0.stream.language.markup">eng</property>
    <property name="meta.attr.0.stream.handler_name.markup">SoundHandle</property>
    <property name="meta.attr.0.stream.vendor_id.markup">[0][0][0][0]</property>
    <property name="meta.attr.major_brand.markup">3gp4</property>
    <property name="meta.attr.minor_version.markup">0</property>
    <property name="meta.attr.compatible_brands.markup">isom3gp4</property>
    <property name="meta.attr.creation_time.markup">2025-01-30T14:21:59.000000Z</property>
    <property name="meta.attr.com.android.version.markup">14</property>
    <property name="seekable">1</property>
    <property name="audio_index">0</property>
    <property name="video_index">-1</property>
    <property name="creation_time">2025-01-30T14:21:59</property>
    <property name="astream">0</property>
    <property name="shotcut:skipConvert">1</property>
    <property name="shotcut:bins">All</property>
    <property name="xml">was here</property>
    <property name="shotcut:hash">7780d3aaaa18d3830498aba648b1e0ff</property>
  </chain>
  <chain id="chain22" out="00:00:17.500">
    <property name="length">00:00:17.542</property>
    <property name="eof">pause</property>
    <property name="resource">C:/Users/dinet/Downloads/Telegram Desktop/1.m4a</property>
    <property name="mlt_service">avformat-novalidate</property>
    <property name="meta.media.nb_streams">1</property>
    <property name="meta.media.0.stream.type">audio</property>
    <property name="meta.media.0.codec.sample_fmt">fltp</property>
    <property name="meta.media.0.codec.sample_rate">44100</property>
    <property name="meta.media.0.codec.channels">1</property>
    <property name="meta.media.0.codec.layout">mono</property>
    <property name="meta.media.0.codec.name">aac</property>
    <property name="meta.media.0.codec.long_name">AAC (Advanced Audio Coding)</property>
    <property name="meta.media.0.codec.bit_rate">128017</property>
    <property name="meta.attr.0.stream.creation_time.markup">2025-01-30T11:25:24.000000Z</property>
    <property name="meta.attr.0.stream.language.markup">eng</property>
    <property name="meta.attr.0.stream.handler_name.markup">SoundHandle</property>
    <property name="meta.attr.0.stream.vendor_id.markup">[0][0][0][0]</property>
    <property name="meta.attr.major_brand.markup">3gp4</property>
    <property name="meta.attr.minor_version.markup">0</property>
    <property name="meta.attr.compatible_brands.markup">isom3gp4</property>
    <property name="meta.attr.creation_time.markup">2025-01-30T11:25:24.000000Z</property>
    <property name="meta.attr.com.android.version.markup">14</property>
    <property name="seekable">1</property>
    <property name="audio_index">0</property>
    <property name="video_index">-1</property>
    <property name="creation_time">2025-01-30T11:25:24</property>
    <property name="astream">0</property>
    <property name="shotcut:skipConvert">1</property>
    <property name="shotcut:bins">All</property>
    <property name="xml">was here</property>
    <property name="shotcut:hash">88b0708c9f7e9aac1efa836b2b757b98</property>
    <property name="ignore_points">1</property>
    <property name="shotcut:caption">1.m4a</property>
  </chain>
  <chain id="chain23" out="00:00:02.667">
    <property name="length">00:00:02.708</property>
    <property name="eof">pause</property>
    <property name="resource">C:/Users/dinet/Downloads/Telegram Desktop/30.m4a</property>
    <property name="mlt_service">avformat-novalidate</property>
    <property name="meta.media.nb_streams">1</property>
    <property name="meta.media.0.stream.type">audio</property>
    <property name="meta.media.0.codec.sample_fmt">fltp</property>
    <property name="meta.media.0.codec.sample_rate">44100</property>
    <property name="meta.media.0.codec.channels">1</property>
    <property name="meta.media.0.codec.layout">mono</property>
    <property name="meta.media.0.codec.name">aac</property>
    <property name="meta.media.0.codec.long_name">AAC (Advanced Audio Coding)</property>
    <property name="meta.media.0.codec.bit_rate">128055</property>
    <property name="meta.attr.0.stream.creation_time.markup">2025-01-30T14:31:20.000000Z</property>
    <property name="meta.attr.0.stream.language.markup">eng</property>
    <property name="meta.attr.0.stream.handler_name.markup">SoundHandle</property>
    <property name="meta.attr.0.stream.vendor_id.markup">[0][0][0][0]</property>
    <property name="meta.attr.major_brand.markup">3gp4</property>
    <property name="meta.attr.minor_version.markup">0</property>
    <property name="meta.attr.compatible_brands.markup">isom3gp4</property>
    <property name="meta.attr.creation_time.markup">2025-01-30T14:31:20.000000Z</property>
    <property name="meta.attr.com.android.version.markup">14</property>
    <property name="seekable">1</property>
    <property name="audio_index">0</property>
    <property name="video_index">-1</property>
    <property name="creation_time">2025-01-30T14:31:20</property>
    <property name="astream">0</property>
    <property name="shotcut:skipConvert">1</property>
    <property name="shotcut:bins">All</property>
    <property name="xml">was here</property>
    <property name="shotcut:hash">aa10364451aabdee66fe51f3e8ac3615</property>
  </chain>
  <chain id="chain24" out="00:00:14.250">
    <property name="length">00:00:14.292</property>
    <property name="eof">pause</property>
    <property name="resource">C:/Users/dinet/Downloads/Telegram Desktop/4.m4a</property>
    <property name="mlt_service">avformat-novalidate</property>
    <property name="meta.media.nb_streams">1</property>
    <property name="meta.media.0.stream.type">audio</property>
    <property name="meta.media.0.codec.sample_fmt">fltp</property>
    <property name="meta.media.0.codec.sample_rate">44100</property>
    <property name="meta.media.0.codec.channels">1</property>
    <property name="meta.media.0.codec.layout">mono</property>
    <property name="meta.media.0.codec.name">aac</property>
    <property name="meta.media.0.codec.long_name">AAC (Advanced Audio Coding)</property>
    <property name="meta.media.0.codec.bit_rate">128005</property>
    <property name="meta.attr.0.stream.creation_time.markup">2025-01-30T11:29:42.000000Z</property>
    <property name="meta.attr.0.stream.language.markup">eng</property>
    <property name="meta.attr.0.stream.handler_name.markup">SoundHandle</property>
    <property name="meta.attr.0.stream.vendor_id.markup">[0][0][0][0]</property>
    <property name="meta.attr.major_brand.markup">3gp4</property>
    <property name="meta.attr.minor_version.markup">0</property>
    <property name="meta.attr.compatible_brands.markup">isom3gp4</property>
    <property name="meta.attr.creation_time.markup">2025-01-30T11:29:42.000000Z</property>
    <property name="meta.attr.com.android.version.markup">14</property>
    <property name="seekable">1</property>
    <property name="audio_index">0</property>
    <property name="video_index">-1</property>
    <property name="creation_time">2025-01-30T11:29:42</property>
    <property name="astream">0</property>
    <property name="shotcut:skipConvert">1</property>
    <property name="shotcut:bins">All</property>
    <property name="xml">was here</property>
    <property name="shotcut:hash">3c8a709848f70100cea85d022dcc67db</property>
  </chain>
  <producer id="producer0" in="00:00:00.000" out="03:59:59.958">
    <property name="length">04:00:00.000</property>
    <property name="eof">pause</property>
    <property name="resource">C:/Users/dinet/Pictures/Screenshots/Screenshot 2025-01-30 204733.png</property>
    <property name="ttl">1</property>
    <property name="aspect_ratio">1</property>
    <property name="meta.media.progressive">1</property>
    <property name="seekable">1</property>
    <property name="format">2</property>
    <property name="meta.media.width">1439</property>
    <property name="meta.media.height">1079</property>
    <property name="mlt_service">qimage</property>
    <property name="creation_time">2025-01-30T15:17:33</property>
    <property name="shotcut:skipConvert">1</property>
    <property name="shotcut:bins">All</property>
    <property name="xml">was here</property>
    <property name="shotcut:hash">ed3b4db11e4de78f97635ed6cf602ae4</property>
  </producer>
  <producer id="producer1" in="00:00:00.000" out="03:59:59.958">
    <property name="length">04:00:00.000</property>
    <property name="eof">pause</property>
    <property name="resource">C:/Users/dinet/Pictures/Screenshots/Screenshot (11).png</property>
    <property name="ttl">1</property>
    <property name="aspect_ratio">1</property>
    <property name="meta.media.progressive">1</property>
    <property name="seekable">1</property>
    <property name="format">2</property>
    <property name="meta.media.width">1920</property>
    <property name="meta.media.height">1080</property>
    <property name="mlt_service">qimage</property>
    <property name="creation_time">2025-01-30T15:36:55</property>
    <property name="shotcut:skipConvert">1</property>
    <property name="shotcut:bins">All</property>
    <property name="xml">was here</property>
    <property name="shotcut:hash">f52c846a42523a154aae563b0cfb6340</property>
  </producer>
  <chain id="chain25" out="00:00:14.750">
    <property name="length">00:00:14.792</property>
    <property name="eof">pause</property>
    <property name="resource">C:/Users/dinet/Videos/Screen Recordings/Screen Recording 2025-01-30 211617.mp4</property>
    <property name="mlt_service">avformat-novalidate</property>
    <property name="meta.media.nb_streams">2</property>
    <property name="meta.media.0.stream.type">video</property>
    <property name="meta.media.0.stream.frame_rate">30</property>
    <property name="meta.media.0.stream.sample_aspect_ratio">0</property>
    <property name="meta.media.0.codec.width">1920</property>
    <property name="meta.media.0.codec.height">1080</property>
    <property name="meta.media.0.codec.rotate">0</property>
    <property name="meta.media.0.codec.pix_fmt">yuv420p</property>
    <property name="meta.media.0.codec.sample_aspect_ratio">1</property>
    <property name="meta.media.0.codec.colorspace">709</property>
    <property name="meta.media.0.codec.name">h264</property>
    <property name="meta.media.0.codec.long_name">H.264 / AVC / MPEG-4 AVC / MPEG-4 part 10</property>
    <property name="meta.media.0.codec.bit_rate">5945209</property>
    <property name="meta.attr.0.stream.creation_time.markup">2025-01-30T15:46:02.000000Z</property>
    <property name="meta.attr.0.stream.handler_name.markup">VideoHandler</property>
    <property name="meta.attr.0.stream.vendor_id.markup">[0][0][0][0]</property>
    <property name="meta.attr.0.stream.encoder.markup">AVC Coding</property>
    <property name="meta.media.1.stream.type">audio</property>
    <property name="meta.media.1.codec.sample_fmt">fltp</property>
    <property name="meta.media.1.codec.sample_rate">48000</property>
    <property name="meta.media.1.codec.channels">2</property>
    <property name="meta.media.1.codec.layout">stereo</property>
    <property name="meta.media.1.codec.name">aac</property>
    <property name="meta.media.1.codec.long_name">AAC (Advanced Audio Coding)</property>
    <property name="meta.media.1.codec.bit_rate">192001</property>
    <property name="meta.attr.1.stream.creation_time.markup">2025-01-30T15:46:02.000000Z</property>
    <property name="meta.attr.1.stream.handler_name.markup">SoundHandler</property>
    <property name="meta.attr.1.stream.vendor_id.markup">[0][0][0][0]</property>
    <property name="meta.attr.major_brand.markup">mp42</property>
    <property name="meta.attr.minor_version.markup">0</property>
    <property name="meta.attr.compatible_brands.markup">mp41isom</property>
    <property name="meta.attr.creation_time.markup">2025-01-30T15:46:02.000000Z</property>
    <property name="seekable">1</property>
    <property name="meta.media.sample_aspect_num">1</property>
    <property name="meta.media.sample_aspect_den">1</property>
    <property name="audio_index">1</property>
    <property name="video_index">0</property>
    <property name="creation_time">2025-01-30T15:46:02</property>
    <property name="vstream">0</property>
    <property name="meta.media.frame_rate_num">30</property>
    <property name="meta.media.frame_rate_den">1</property>
    <property name="meta.media.colorspace">709</property>
    <property name="meta.media.color_trc">2</property>
    <property name="meta.media.has_b_frames">1</property>
    <property name="meta.media.width">1920</property>
    <property name="meta.media.height">1080</property>
    <property name="meta.media.aspect_ratio">1</property>
    <property name="meta.media.color_range">mpeg</property>
    <property name="astream">0</property>
    <property name="shotcut:skipConvert">1</property>
    <property name="shotcut:bins">All</property>
    <property name="xml">was here</property>
    <property name="shotcut:hash">65363393e90f7e24565f7a9c572ab952</property>
  </chain>
  <producer id="producer2" in="00:00:00.000" out="03:59:59.958">
    <property name="length">04:00:00.000</property>
    <property name="eof">pause</property>
    <property name="resource">C:/Users/dinet/Pictures/Screenshots/Screenshot (14).png</property>
    <property name="ttl">1</property>
    <property name="aspect_ratio">1</property>
    <property name="meta.media.progressive">1</property>
    <property name="seekable">1</property>
    <property name="format">2</property>
    <property name="meta.media.width">1920</property>
    <property name="meta.media.height">1080</property>
    <property name="mlt_service">qimage</property>
    <property name="creation_time">2025-01-30T16:39:33</property>
    <property name="shotcut:skipConvert">1</property>
    <property name="shotcut:bins">All</property>
    <property name="xml">was here</property>
    <property name="shotcut:hash">c2f5572c01e487d0f690bf1f4e13c694</property>
  </producer>
  <chain id="chain26" out="00:00:51.375">
    <property name="length">00:00:51.417</property>
    <property name="eof">pause</property>
    <property name="resource">C:/Users/dinet/Videos/Screen Recordings/Screen Recording 2025-01-30 224119.mp4</property>
    <property name="mlt_service">avformat-novalidate</property>
    <property name="meta.media.nb_streams">2</property>
    <property name="meta.media.0.stream.type">video</property>
    <property name="meta.media.0.stream.frame_rate">30</property>
    <property name="meta.media.0.stream.sample_aspect_ratio">0</property>
    <property name="meta.media.0.codec.width">952</property>
    <property name="meta.media.0.codec.height">708</property>
    <property name="meta.media.0.codec.rotate">0</property>
    <property name="meta.media.0.codec.pix_fmt">yuv420p</property>
    <property name="meta.media.0.codec.sample_aspect_ratio">1</property>
    <property name="meta.media.0.codec.colorspace">601</property>
    <property name="meta.media.0.codec.name">h264</property>
    <property name="meta.media.0.codec.long_name">H.264 / AVC / MPEG-4 AVC / MPEG-4 part 10</property>
    <property name="meta.media.0.codec.bit_rate">2376037</property>
    <property name="meta.attr.0.stream.creation_time.markup">2025-01-30T17:10:28.000000Z</property>
    <property name="meta.attr.0.stream.handler_name.markup">VideoHandler</property>
    <property name="meta.attr.0.stream.vendor_id.markup">[0][0][0][0]</property>
    <property name="meta.attr.0.stream.encoder.markup">AVC Coding</property>
    <property name="meta.media.1.stream.type">audio</property>
    <property name="meta.media.1.codec.sample_fmt">fltp</property>
    <property name="meta.media.1.codec.sample_rate">48000</property>
    <property name="meta.media.1.codec.channels">2</property>
    <property name="meta.media.1.codec.layout">stereo</property>
    <property name="meta.media.1.codec.name">aac</property>
    <property name="meta.media.1.codec.long_name">AAC (Advanced Audio Coding)</property>
    <property name="meta.media.1.codec.bit_rate">192001</property>
    <property name="meta.attr.1.stream.creation_time.markup">2025-01-30T17:10:28.000000Z</property>
    <property name="meta.attr.1.stream.handler_name.markup">SoundHandler</property>
    <property name="meta.attr.1.stream.vendor_id.markup">[0][0][0][0]</property>
    <property name="meta.attr.major_brand.markup">mp42</property>
    <property name="meta.attr.minor_version.markup">0</property>
    <property name="meta.attr.compatible_brands.markup">mp41isom</property>
    <property name="meta.attr.creation_time.markup">2025-01-30T17:10:28.000000Z</property>
    <property name="seekable">1</property>
    <property name="meta.media.sample_aspect_num">1</property>
    <property name="meta.media.sample_aspect_den">1</property>
    <property name="audio_index">1</property>
    <property name="video_index">0</property>
    <property name="creation_time">2025-01-30T17:10:28</property>
    <property name="vstream">0</property>
    <property name="meta.media.frame_rate_num">30</property>
    <property name="meta.media.frame_rate_den">1</property>
    <property name="meta.media.colorspace">601</property>
    <property name="meta.media.color_trc">2</property>
    <property name="meta.media.has_b_frames">1</property>
    <property name="meta.media.width">952</property>
    <property name="meta.media.height">708</property>
    <property name="meta.media.aspect_ratio">1</property>
    <property name="meta.media.color_range">mpeg</property>
    <property name="astream">0</property>
    <property name="shotcut:skipConvert">1</property>
    <property name="shotcut:bins">All</property>
    <property name="xml">was here</property>
    <property name="shotcut:hash">65e478fab7729de526b0e585619c30a3</property>
  </chain>
  <producer id="producer3" in="00:00:00.000" out="03:59:59.958">
    <property name="length">04:00:00.000</property>
    <property name="eof">pause</property>
    <property name="resource">C:/Users/dinet/Pictures/Screenshots/Screenshot (13).png</property>
    <property name="ttl">1</property>
    <property name="aspect_ratio">1</property>
    <property name="meta.media.progressive">1</property>
    <property name="seekable">1</property>
    <property name="format">2</property>
    <property name="meta.media.width">1920</property>
    <property name="meta.media.height">1080</property>
    <property name="mlt_service">qimage</property>
    <property name="creation_time">2025-01-30T15:43:28</property>
    <property name="shotcut:skipConvert">1</property>
    <property name="shotcut:bins">All</property>
    <property name="xml">was here</property>
    <property name="shotcut:hash">af18d55b63c9968efadd4e5a55f7c60e</property>
  </producer>
  <producer id="producer4" in="00:00:00.000" out="03:59:59.958">
    <property name="length">04:00:00.000</property>
    <property name="eof">pause</property>
    <property name="resource">D:/ENG/PROJECTS/VIVCONV/simulations/2D/stationary/S003_files/dp0/FFF/Fluent/FFF-3-01200.jpg</property>
    <property name="ttl">1</property>
    <property name="aspect_ratio">1</property>
    <property name="meta.media.progressive">1</property>
    <property name="seekable">1</property>
    <property name="format">1</property>
    <property name="meta.media.width">966</property>
    <property name="meta.media.height">724</property>
    <property name="mlt_service">qimage</property>
    <property name="creation_time">2025-01-30T16:06:50</property>
    <property name="shotcut:skipConvert">1</property>
    <property name="shotcut:bins">All</property>
    <property name="xml">was here</property>
    <property name="shotcut:hash">eff3be20a637490ab4a45ec763354ed1</property>
  </producer>
  <chain id="chain27" out="00:00:10.000">
    <property name="length">00:00:10.042</property>
    <property name="eof">pause</property>
    <property name="resource">C:/Users/dinet/Documents/StationaryRe100.mp4</property>
    <property name="mlt_service">avformat-novalidate</property>
    <property name="meta.media.nb_streams">1</property>
    <property name="meta.media.0.stream.type">video</property>
    <property name="meta.media.0.stream.frame_rate">24</property>
    <property name="meta.media.0.stream.sample_aspect_ratio">0</property>
    <property name="meta.media.0.codec.width">1920</property>
    <property name="meta.media.0.codec.height">1080</property>
    <property name="meta.media.0.codec.rotate">0</property>
    <property name="meta.media.0.codec.pix_fmt">yuv420p</property>
    <property name="meta.media.0.codec.sample_aspect_ratio">1</property>
    <property name="meta.media.0.codec.colorspace">709</property>
    <property name="meta.media.0.codec.name">mpeg4</property>
    <property name="meta.media.0.codec.long_name">MPEG-4 part 2</property>
    <property name="meta.media.0.codec.bit_rate">2234717</property>
    <property name="meta.attr.0.stream.creation_time.markup">1970-01-01T00:00:00.000000Z</property>
    <property name="meta.attr.0.stream.handler_name.markup">VideoHandler</property>
    <property name="meta.attr.0.stream.vendor_id.markup">[0][0][0][0]</property>
    <property name="meta.attr.major_brand.markup">isom</property>
    <property name="meta.attr.minor_version.markup">512</property>
    <property name="meta.attr.compatible_brands.markup">mp41</property>
    <property name="meta.attr.creation_time.markup">1970-01-01T00:00:00.000000Z</property>
    <property name="seekable">1</property>
    <property name="meta.media.sample_aspect_num">1</property>
    <property name="meta.media.sample_aspect_den">1</property>
    <property name="audio_index">-1</property>
    <property name="video_index">0</property>
    <property name="vstream">0</property>
    <property name="meta.media.frame_rate_num">24</property>
    <property name="meta.media.frame_rate_den">1</property>
    <property name="meta.media.colorspace">709</property>
    <property name="meta.media.color_trc">2</property>
    <property name="meta.media.has_b_frames">0</property>
    <property name="meta.media.width">1920</property>
    <property name="meta.media.height">1080</property>
    <property name="meta.media.aspect_ratio">1</property>
    <property name="meta.media.color_range">mpeg</property>
    <property name="shotcut:skipConvert">1</property>
    <property name="shotcut:bins">All</property>
    <property name="xml">was here</property>
    <property name="shotcut:hash">8075d98be47799d54a23929312aac6c3</property>
  </chain>
  <chain id="chain28" out="00:00:05.167">
    <property name="length">00:00:05.208</property>
    <property name="eof">pause</property>
    <property name="resource">C:/Users/dinet/Videos/Screen Recordings/Screen Recording 2025-01-30 214210.mp4</property>
    <property name="mlt_service">avformat-novalidate</property>
    <property name="meta.media.nb_streams">2</property>
    <property name="meta.media.0.stream.type">video</property>
    <property name="meta.media.0.stream.frame_rate">30</property>
    <property name="meta.media.0.stream.sample_aspect_ratio">0</property>
    <property name="meta.media.0.codec.width">1920</property>
    <property name="meta.media.0.codec.height">1080</property>
    <property name="meta.media.0.codec.rotate">0</property>
    <property name="meta.media.0.codec.pix_fmt">yuv420p</property>
    <property name="meta.media.0.codec.sample_aspect_ratio">1</property>
    <property name="meta.media.0.codec.colorspace">709</property>
    <property name="meta.media.0.codec.name">h264</property>
    <property name="meta.media.0.codec.long_name">H.264 / AVC / MPEG-4 AVC / MPEG-4 part 10</property>
    <property name="meta.media.0.codec.bit_rate">3023162</property>
    <property name="meta.attr.0.stream.creation_time.markup">2025-01-30T16:12:05.000000Z</property>
    <property name="meta.attr.0.stream.handler_name.markup">VideoHandler</property>
    <property name="meta.attr.0.stream.vendor_id.markup">[0][0][0][0]</property>
    <property name="meta.attr.0.stream.encoder.markup">AVC Coding</property>
    <property name="meta.media.1.stream.type">audio</property>
    <property name="meta.media.1.codec.sample_fmt">fltp</property>
    <property name="meta.media.1.codec.sample_rate">48000</property>
    <property name="meta.media.1.codec.channels">2</property>
    <property name="meta.media.1.codec.layout">stereo</property>
    <property name="meta.media.1.codec.name">aac</property>
    <property name="meta.media.1.codec.long_name">AAC (Advanced Audio Coding)</property>
    <property name="meta.media.1.codec.bit_rate">192001</property>
    <property name="meta.attr.1.stream.creation_time.markup">2025-01-30T16:12:05.000000Z</property>
    <property name="meta.attr.1.stream.handler_name.markup">SoundHandler</property>
    <property name="meta.attr.1.stream.vendor_id.markup">[0][0][0][0]</property>
    <property name="meta.attr.major_brand.markup">mp42</property>
    <property name="meta.attr.minor_version.markup">0</property>
    <property name="meta.attr.compatible_brands.markup">mp41isom</property>
    <property name="meta.attr.creation_time.markup">2025-01-30T16:12:05.000000Z</property>
    <property name="seekable">1</property>
    <property name="meta.media.sample_aspect_num">1</property>
    <property name="meta.media.sample_aspect_den">1</property>
    <property name="audio_index">1</property>
    <property name="video_index">0</property>
    <property name="creation_time">2025-01-30T16:12:05</property>
    <property name="vstream">0</property>
    <property name="meta.media.frame_rate_num">30</property>
    <property name="meta.media.frame_rate_den">1</property>
    <property name="meta.media.colorspace">709</property>
    <property name="meta.media.color_trc">2</property>
    <property name="meta.media.has_b_frames">1</property>
    <property name="meta.media.width">1920</property>
    <property name="meta.media.height">1080</property>
    <property name="meta.media.aspect_ratio">1</property>
    <property name="meta.media.color_range">mpeg</property>
    <property name="astream">0</property>
    <property name="shotcut:skipConvert">1</property>
    <property name="shotcut:bins">All</property>
    <property name="xml">was here</property>
    <property name="shotcut:hash">90ec76ff4139fd8bcb1e93750b5e1fbc</property>
  </chain>
  <chain id="chain29" out="00:00:16.000">
    <property name="length">00:00:16.042</property>
    <property name="eof">pause</property>
    <property name="resource">C:/Users/dinet/Videos/Screen Recordings/Screen Recording 2025-01-30 214933.mp4</property>
    <property name="mlt_service">avformat-novalidate</property>
    <property name="meta.media.nb_streams">2</property>
    <property name="meta.media.0.stream.type">video</property>
    <property name="meta.media.0.stream.frame_rate">30</property>
    <property name="meta.media.0.stream.sample_aspect_ratio">0</property>
    <property name="meta.media.0.codec.width">1920</property>
    <property name="meta.media.0.codec.height">1080</property>
    <property name="meta.media.0.codec.rotate">0</property>
    <property name="meta.media.0.codec.pix_fmt">yuv420p</property>
    <property name="meta.media.0.codec.sample_aspect_ratio">1</property>
    <property name="meta.media.0.codec.colorspace">709</property>
    <property name="meta.media.0.codec.name">h264</property>
    <property name="meta.media.0.codec.long_name">H.264 / AVC / MPEG-4 AVC / MPEG-4 part 10</property>
    <property name="meta.media.0.codec.bit_rate">8493673</property>
    <property name="meta.attr.0.stream.creation_time.markup">2025-01-30T16:19:17.000000Z</property>
    <property name="meta.attr.0.stream.handler_name.markup">VideoHandler</property>
    <property name="meta.attr.0.stream.vendor_id.markup">[0][0][0][0]</property>
    <property name="meta.attr.0.stream.encoder.markup">AVC Coding</property>
    <property name="meta.media.1.stream.type">audio</property>
    <property name="meta.media.1.codec.sample_fmt">fltp</property>
    <property name="meta.media.1.codec.sample_rate">48000</property>
    <property name="meta.media.1.codec.channels">2</property>
    <property name="meta.media.1.codec.layout">stereo</property>
    <property name="meta.media.1.codec.name">aac</property>
    <property name="meta.media.1.codec.long_name">AAC (Advanced Audio Coding)</property>
    <property name="meta.media.1.codec.bit_rate">192187</property>
    <property name="meta.attr.1.stream.creation_time.markup">2025-01-30T16:19:17.000000Z</property>
    <property name="meta.attr.1.stream.handler_name.markup">SoundHandler</property>
    <property name="meta.attr.1.stream.vendor_id.markup">[0][0][0][0]</property>
    <property name="meta.attr.major_brand.markup">mp42</property>
    <property name="meta.attr.minor_version.markup">0</property>
    <property name="meta.attr.compatible_brands.markup">mp41isom</property>
    <property name="meta.attr.creation_time.markup">2025-01-30T16:19:17.000000Z</property>
    <property name="seekable">1</property>
    <property name="meta.media.sample_aspect_num">1</property>
    <property name="meta.media.sample_aspect_den">1</property>
    <property name="audio_index">1</property>
    <property name="video_index">0</property>
    <property name="creation_time">2025-01-30T16:19:17</property>
    <property name="vstream">0</property>
    <property name="meta.media.frame_rate_num">30</property>
    <property name="meta.media.frame_rate_den">1</property>
    <property name="meta.media.colorspace">709</property>
    <property name="meta.media.color_trc">2</property>
    <property name="meta.media.has_b_frames">1</property>
    <property name="meta.media.width">1920</property>
    <property name="meta.media.height">1080</property>
    <property name="meta.media.aspect_ratio">1</property>
    <property name="meta.media.color_range">mpeg</property>
    <property name="astream">0</property>
    <property name="shotcut:skipConvert">1</property>
    <property name="shotcut:bins">All</property>
    <property name="xml">was here</property>
    <property name="shotcut:hash">2dcd7dd91b5b0c003ca717e65f120961</property>
  </chain>
  <producer id="producer5" in="00:00:00.000" out="03:59:59.958">
    <property name="length">04:00:00.000</property>
    <property name="eof">pause</property>
    <property name="resource">C:/Users/dinet/Pictures/Screenshots/Screenshot (15).png</property>
    <property name="ttl">1</property>
    <property name="aspect_ratio">1</property>
    <property name="meta.media.progressive">1</property>
    <property name="seekable">1</property>
    <property name="format">2</property>
    <property name="meta.media.width">1920</property>
    <property name="meta.media.height">1080</property>
    <property name="mlt_service">qimage</property>
    <property name="creation_time">2025-01-30T16:49:48</property>
    <property name="shotcut:skipConvert">1</property>
    <property name="shotcut:bins">All</property>
    <property name="xml">was here</property>
    <property name="shotcut:hash">8edf82dd7e97507aa27d2d073c686939</property>
  </producer>
  <producer id="producer6" in="00:00:00.000" out="03:59:59.958">
    <property name="length">04:00:00.000</property>
    <property name="eof">pause</property>
    <property name="resource">C:/Users/dinet/Downloads/science-word-concept/3811709.jpg</property>
    <property name="ttl">1</property>
    <property name="aspect_ratio">1</property>
    <property name="meta.media.progressive">1</property>
    <property name="seekable">1</property>
    <property name="format">1</property>
    <property name="meta.media.width">3000</property>
    <property name="meta.media.height">2000</property>
    <property name="mlt_service">qimage</property>
    <property name="creation_time">2025-01-30T16:59:08</property>
    <property name="shotcut:skipConvert">1</property>
    <property name="shotcut:bins">All</property>
    <property name="xml">was here</property>
    <property name="shotcut:hash">eb6c32dfea6a75b2bbd0060320d9e020</property>
  </producer>
  <chain id="chain30" out="00:00:15.875">
    <property name="length">00:00:15.917</property>
    <property name="eof">pause</property>
    <property name="resource">C:/Users/dinet/Videos/Screen Recordings/Screen Recording 2025-01-30 223334.mp4</property>
    <property name="mlt_service">avformat-novalidate</property>
    <property name="meta.media.nb_streams">2</property>
    <property name="meta.media.0.stream.type">video</property>
    <property name="meta.media.0.stream.frame_rate">30</property>
    <property name="meta.media.0.stream.sample_aspect_ratio">0</property>
    <property name="meta.media.0.codec.width">1920</property>
    <property name="meta.media.0.codec.height">1080</property>
    <property name="meta.media.0.codec.rotate">0</property>
    <property name="meta.media.0.codec.pix_fmt">yuv420p</property>
    <property name="meta.media.0.codec.sample_aspect_ratio">1</property>
    <property name="meta.media.0.codec.colorspace">709</property>
    <property name="meta.media.0.codec.name">h264</property>
    <property name="meta.media.0.codec.long_name">H.264 / AVC / MPEG-4 AVC / MPEG-4 part 10</property>
    <property name="meta.media.0.codec.bit_rate">8128463</property>
    <property name="meta.attr.0.stream.creation_time.markup">2025-01-30T17:03:19.000000Z</property>
    <property name="meta.attr.0.stream.handler_name.markup">VideoHandler</property>
    <property name="meta.attr.0.stream.vendor_id.markup">[0][0][0][0]</property>
    <property name="meta.attr.0.stream.encoder.markup">AVC Coding</property>
    <property name="meta.media.1.stream.type">audio</property>
    <property name="meta.media.1.codec.sample_fmt">fltp</property>
    <property name="meta.media.1.codec.sample_rate">48000</property>
    <property name="meta.media.1.codec.channels">2</property>
    <property name="meta.media.1.codec.layout">stereo</property>
    <property name="meta.media.1.codec.name">aac</property>
    <property name="meta.media.1.codec.long_name">AAC (Advanced Audio Coding)</property>
    <property name="meta.media.1.codec.bit_rate">192001</property>
    <property name="meta.attr.1.stream.creation_time.markup">2025-01-30T17:03:19.000000Z</property>
    <property name="meta.attr.1.stream.handler_name.markup">SoundHandler</property>
    <property name="meta.attr.1.stream.vendor_id.markup">[0][0][0][0]</property>
    <property name="meta.attr.major_brand.markup">mp42</property>
    <property name="meta.attr.minor_version.markup">0</property>
    <property name="meta.attr.compatible_brands.markup">mp41isom</property>
    <property name="meta.attr.creation_time.markup">2025-01-30T17:03:19.000000Z</property>
    <property name="seekable">1</property>
    <property name="meta.media.sample_aspect_num">1</property>
    <property name="meta.media.sample_aspect_den">1</property>
    <property name="audio_index">1</property>
    <property name="video_index">0</property>
    <property name="creation_time">2025-01-30T17:03:19</property>
    <property name="vstream">0</property>
    <property name="meta.media.frame_rate_num">30</property>
    <property name="meta.media.frame_rate_den">1</property>
    <property name="meta.media.colorspace">709</property>
    <property name="meta.media.color_trc">2</property>
    <property name="meta.media.has_b_frames">1</property>
    <property name="meta.media.width">1920</property>
    <property name="meta.media.height">1080</property>
    <property name="meta.media.aspect_ratio">1</property>
    <property name="meta.media.color_range">mpeg</property>
    <property name="astream">0</property>
    <property name="shotcut:skipConvert">1</property>
    <property name="shotcut:bins">All</property>
    <property name="xml">was here</property>
    <property name="shotcut:hash">5e960142b7eb7e2510ea05390bc638dc</property>
  </chain>
  <chain id="chain31" out="00:00:08.583">
    <property name="length">00:00:08.625</property>
    <property name="eof">pause</property>
    <property name="resource">C:/Users/dinet/Videos/Screen Recordings/Screen Recording 2025-01-30 223735.mp4</property>
    <property name="mlt_service">avformat-novalidate</property>
    <property name="meta.media.nb_streams">2</property>
    <property name="meta.media.0.stream.type">video</property>
    <property name="meta.media.0.stream.frame_rate">30</property>
    <property name="meta.media.0.stream.sample_aspect_ratio">0</property>
    <property name="meta.media.0.codec.width">1782</property>
    <property name="meta.media.0.codec.height">916</property>
    <property name="meta.media.0.codec.rotate">0</property>
    <property name="meta.media.0.codec.pix_fmt">yuv420p</property>
    <property name="meta.media.0.codec.sample_aspect_ratio">1</property>
    <property name="meta.media.0.codec.colorspace">709</property>
    <property name="meta.media.0.codec.name">h264</property>
    <property name="meta.media.0.codec.long_name">H.264 / AVC / MPEG-4 AVC / MPEG-4 part 10</property>
    <property name="meta.media.0.codec.bit_rate">2416810</property>
    <property name="meta.attr.0.stream.creation_time.markup">2025-01-30T17:07:27.000000Z</property>
    <property name="meta.attr.0.stream.handler_name.markup">VideoHandler</property>
    <property name="meta.attr.0.stream.vendor_id.markup">[0][0][0][0]</property>
    <property name="meta.attr.0.stream.encoder.markup">AVC Coding</property>
    <property name="meta.media.1.stream.type">audio</property>
    <property name="meta.media.1.codec.sample_fmt">fltp</property>
    <property name="meta.media.1.codec.sample_rate">48000</property>
    <property name="meta.media.1.codec.channels">2</property>
    <property name="meta.media.1.codec.layout">stereo</property>
    <property name="meta.media.1.codec.name">aac</property>
    <property name="meta.media.1.codec.long_name">AAC (Advanced Audio Coding)</property>
    <property name="meta.media.1.codec.bit_rate">192001</property>
    <property name="meta.attr.1.stream.creation_time.markup">2025-01-30T17:07:27.000000Z</property>
    <property name="meta.attr.1.stream.handler_name.markup">SoundHandler</property>
    <property name="meta.attr.1.stream.vendor_id.markup">[0][0][0][0]</property>
    <property name="meta.attr.major_brand.markup">mp42</property>
    <property name="meta.attr.minor_version.markup">0</property>
    <property name="meta.attr.compatible_brands.markup">mp41isom</property>
    <property name="meta.attr.creation_time.markup">2025-01-30T17:07:27.000000Z</property>
    <property name="seekable">1</property>
    <property name="meta.media.sample_aspect_num">1</property>
    <property name="meta.media.sample_aspect_den">1</property>
    <property name="audio_index">1</property>
    <property name="video_index">0</property>
    <property name="creation_time">2025-01-30T17:07:27</property>
    <property name="vstream">0</property>
    <property name="meta.media.frame_rate_num">30</property>
    <property name="meta.media.frame_rate_den">1</property>
    <property name="meta.media.colorspace">709</property>
    <property name="meta.media.color_trc">2</property>
    <property name="meta.media.has_b_frames">1</property>
    <property name="meta.media.width">1782</property>
    <property name="meta.media.height">916</property>
    <property name="meta.media.aspect_ratio">1</property>
    <property name="meta.media.color_range">mpeg</property>
    <property name="astream">0</property>
    <property name="shotcut:skipConvert">1</property>
    <property name="shotcut:bins">All</property>
    <property name="xml">was here</property>
    <property name="shotcut:hash">c8e6af41b09c2746756a357f55a795ef</property>
  </chain>
  <producer id="producer7" in="00:00:00.000" out="03:59:59.958">
    <property name="length">04:00:00.000</property>
    <property name="eof">pause</property>
    <property name="resource">C:/Users/dinet/Pictures/Screenshots/Screenshot (16).png</property>
    <property name="ttl">1</property>
    <property name="aspect_ratio">1</property>
    <property name="meta.media.progressive">1</property>
    <property name="seekable">1</property>
    <property name="format">2</property>
    <property name="meta.media.width">1920</property>
    <property name="meta.media.height">1080</property>
    <property name="mlt_service">qimage</property>
    <property name="creation_time">2025-01-30T17:19:03</property>
    <property name="shotcut:skipConvert">1</property>
    <property name="shotcut:bins">All</property>
    <property name="xml">was here</property>
    <property name="shotcut:hash">7187d27cb5754efc4288a3e7fe8eda2f</property>
  </producer>
  <producer id="producer8" in="00:00:00.000" out="03:59:59.958">
    <property name="length">04:00:00.000</property>
    <property name="eof">pause</property>
    <property name="resource">C:/Users/dinet/Pictures/Screenshots/Screenshot (17).png</property>
    <property name="ttl">1</property>
    <property name="aspect_ratio">1</property>
    <property name="meta.media.progressive">1</property>
    <property name="seekable">1</property>
    <property name="format">2</property>
    <property name="meta.media.width">1920</property>
    <property name="meta.media.height">1080</property>
    <property name="mlt_service">qimage</property>
    <property name="creation_time">2025-01-30T17:23:00</property>
    <property name="shotcut:skipConvert">1</property>
    <property name="shotcut:bins">All</property>
    <property name="xml">was here</property>
    <property name="shotcut:hash">6debae607428499e4eec13e08c58d2e2</property>
  </producer>
  <producer id="producer9" in="00:00:00.000" out="03:59:59.958">
    <property name="length">04:00:00.000</property>
    <property name="eof">pause</property>
    <property name="resource">C:/Users/dinet/Pictures/Screenshots/Screenshot (18).png</property>
    <property name="ttl">1</property>
    <property name="aspect_ratio">1</property>
    <property name="meta.media.progressive">1</property>
    <property name="seekable">1</property>
    <property name="format">2</property>
    <property name="meta.media.width">1920</property>
    <property name="meta.media.height">1080</property>
    <property name="mlt_service">qimage</property>
    <property name="creation_time">2025-01-30T17:41:21</property>
    <property name="shotcut:skipConvert">1</property>
    <property name="shotcut:bins">All</property>
    <property name="xml">was here</property>
    <property name="shotcut:hash">92db3f0336b73619e608f67823cf7ba5</property>
  </producer>
  <producer id="producer10" in="00:00:00.000" out="03:59:59.958">
    <property name="length">04:00:00.000</property>
    <property name="eof">pause</property>
    <property name="resource">C:/Users/dinet/Pictures/Screenshots/Screenshot (19).png</property>
    <property name="ttl">1</property>
    <property name="aspect_ratio">1</property>
    <property name="meta.media.progressive">1</property>
    <property name="seekable">1</property>
    <property name="format">2</property>
    <property name="meta.media.width">1920</property>
    <property name="meta.media.height">1080</property>
    <property name="mlt_service">qimage</property>
    <property name="creation_time">2025-01-30T17:52:36</property>
    <property name="shotcut:skipConvert">1</property>
    <property name="shotcut:bins">All</property>
    <property name="xml">was here</property>
    <property name="shotcut:hash">9d21e0d35466811f35e9c4c0991a9b6d</property>
  </producer>
  <producer id="producer11" in="00:00:00.000" out="03:59:59.958">
    <property name="length">04:00:00.000</property>
    <property name="eof">pause</property>
    <property name="resource">C:/Users/dinet/Pictures/Screenshots/Screenshot (21).png</property>
    <property name="ttl">1</property>
    <property name="aspect_ratio">1</property>
    <property name="meta.media.progressive">1</property>
    <property name="seekable">1</property>
    <property name="format">2</property>
    <property name="meta.media.width">1920</property>
    <property name="meta.media.height">1080</property>
    <property name="mlt_service">qimage</property>
    <property name="creation_time">2025-01-30T18:10:41</property>
    <property name="shotcut:skipConvert">1</property>
    <property name="shotcut:bins">All</property>
    <property name="xml">was here</property>
    <property name="shotcut:hash">108c49ff5cda63072d8ced4307fbc57b</property>
  </producer>
  <producer id="producer12" in="00:00:00.000" out="03:59:59.958">
    <property name="length">04:00:00.000</property>
    <property name="eof">pause</property>
    <property name="resource">C:/Users/dinet/Pictures/Screenshots/Screenshot (22).png</property>
    <property name="ttl">1</property>
    <property name="aspect_ratio">1</property>
    <property name="meta.media.progressive">1</property>
    <property name="seekable">1</property>
    <property name="format">2</property>
    <property name="meta.media.width">1920</property>
    <property name="meta.media.height">1080</property>
    <property name="mlt_service">qimage</property>
    <property name="creation_time">2025-01-30T18:10:43</property>
    <property name="shotcut:skipConvert">1</property>
    <property name="shotcut:bins">All</property>
    <property name="xml">was here</property>
    <property name="shotcut:hash">c136206bd6901aaa3cab0a69ca529149</property>
  </producer>
  <producer id="producer13" in="00:00:00.000" out="03:59:59.958">
    <property name="length">04:00:00.000</property>
    <property name="eof">pause</property>
    <property name="resource">C:/Users/dinet/Pictures/Screenshots/Screenshot (27).png</property>
    <property name="ttl">1</property>
    <property name="aspect_ratio">1</property>
    <property name="meta.media.progressive">1</property>
    <property name="seekable">1</property>
    <property name="format">2</property>
    <property name="meta.media.width">1920</property>
    <property name="meta.media.height">1080</property>
    <property name="mlt_service">qimage</property>
    <property name="creation_time">2025-01-30T18:39:54</property>
    <property name="shotcut:skipConvert">1</property>
    <property name="shotcut:bins">All</property>
    <property name="xml">was here</property>
    <property name="shotcut:hash">7caa2b019ddc485074e83965d22174f7</property>
  </producer>
  <producer id="producer14" in="00:00:00.000" out="03:59:59.958">
    <property name="length">04:00:00.000</property>
    <property name="eof">pause</property>
    <property name="resource">C:/Users/dinet/Pictures/Screenshots/Screenshot (28).png</property>
    <property name="ttl">1</property>
    <property name="aspect_ratio">1</property>
    <property name="meta.media.progressive">1</property>
    <property name="seekable">1</property>
    <property name="format">2</property>
    <property name="meta.media.width">1920</property>
    <property name="meta.media.height">1080</property>
    <property name="mlt_service">qimage</property>
    <property name="creation_time">2025-01-30T18:47:19</property>
    <property name="shotcut:skipConvert">1</property>
    <property name="shotcut:bins">All</property>
    <property name="xml">was here</property>
    <property name="shotcut:hash">317bf7beaa7cbc80eeb00a8bdba0f062</property>
  </producer>
  <producer id="producer15" in="00:00:00.000" out="03:59:59.958">
    <property name="length">04:00:00.000</property>
    <property name="eof">pause</property>
    <property name="resource">C:/Users/dinet/Pictures/Screenshots/Screenshot (29).png</property>
    <property name="ttl">1</property>
    <property name="aspect_ratio">1</property>
    <property name="meta.media.progressive">1</property>
    <property name="seekable">1</property>
    <property name="format">2</property>
    <property name="meta.media.width">1920</property>
    <property name="meta.media.height">1080</property>
    <property name="mlt_service">qimage</property>
    <property name="creation_time">2025-01-30T19:00:59</property>
    <property name="shotcut:skipConvert">1</property>
    <property name="shotcut:bins">All</property>
    <property name="xml">was here</property>
    <property name="shotcut:hash">f642f49d172e4fa87e62932f739c3a92</property>
  </producer>
  <producer id="producer16" in="00:00:00.000" out="03:59:59.958">
    <property name="length">04:00:00.000</property>
    <property name="eof">pause</property>
    <property name="resource">C:/Users/dinet/Pictures/Screenshots/Screenshot (31).png</property>
    <property name="ttl">1</property>
    <property name="aspect_ratio">1</property>
    <property name="meta.media.progressive">1</property>
    <property name="seekable">1</property>
    <property name="format">2</property>
    <property name="meta.media.width">1920</property>
    <property name="meta.media.height">1080</property>
    <property name="mlt_service">qimage</property>
    <property name="creation_time">2025-01-30T19:12:58</property>
    <property name="shotcut:skipConvert">1</property>
    <property name="shotcut:bins">All</property>
    <property name="xml">was here</property>
    <property name="shotcut:hash">16f92c033b32ec2f17ae5bb919eec8fe</property>
  </producer>
  <playlist id="main_bin" title="Shotcut version 25.01.25">
    <property name="shotcut:projectAudioChannels">2</property>
    <property name="shotcut:projectFolder">1</property>
    <property name="xml_retain">1</property>
    <entry producer="chain0" in="00:00:00.000" out="00:00:19.458"/>
    <entry producer="chain1" in="00:00:00.000" out="00:00:07.208"/>
    <entry producer="chain2" in="00:00:00.000" out="00:00:04.042"/>
    <entry producer="chain3" in="00:00:00.000" out="00:00:17.375"/>
    <entry producer="chain4" in="00:00:00.000" out="00:00:17.833"/>
    <entry producer="chain5" in="00:00:00.000" out="00:00:14.625"/>
    <entry producer="chain6" in="00:00:00.000" out="00:00:15.917"/>
    <entry producer="chain7" in="00:00:00.000" out="00:00:26.208"/>
    <entry producer="chain8" in="00:00:00.000" out="00:00:04.042"/>
    <entry producer="chain9" in="00:00:00.000" out="00:00:12.625"/>
    <entry producer="chain10" in="00:00:00.000" out="00:00:24.542"/>
    <entry producer="chain11" in="00:00:00.000" out="00:00:20.708"/>
    <entry producer="chain12" in="00:00:00.000" out="00:00:05.708"/>
    <entry producer="chain13" in="00:00:00.000" out="00:00:10.250"/>
    <entry producer="chain14" in="00:00:00.000" out="00:00:31.250"/>
    <entry producer="chain15" in="00:00:00.000" out="00:00:14.208"/>
    <entry producer="chain16" in="00:00:00.000" out="00:00:13.250"/>
    <entry producer="chain17" in="00:00:00.000" out="00:00:24.667"/>
    <entry producer="chain18" in="00:00:00.000" out="00:00:04.958"/>
    <entry producer="chain19" in="00:00:00.000" out="00:00:07.583"/>
    <entry producer="chain20" in="00:00:00.000" out="00:00:05.792"/>
    <entry producer="chain21" in="00:00:00.000" out="00:00:03.833"/>
    <entry producer="chain22" in="00:00:00.000" out="00:00:17.500"/>
    <entry producer="chain23" in="00:00:00.000" out="00:00:02.667"/>
    <entry producer="chain24" in="00:00:00.000" out="00:00:14.250"/>
    <entry producer="producer0" in="00:00:00.000" out="00:00:03.958"/>
    <entry producer="producer1" in="00:00:00.000" out="00:00:03.958"/>
    <entry producer="chain25" in="00:00:00.000" out="00:00:14.750"/>
    <entry producer="producer2" in="00:00:00.000" out="00:00:03.958"/>
    <entry producer="chain26" in="00:00:00.000" out="00:00:51.375"/>
    <entry producer="producer3" in="00:00:00.000" out="00:00:03.958"/>
    <entry producer="producer4" in="00:00:00.000" out="00:00:03.958"/>
    <entry producer="chain27" in="00:00:00.000" out="00:00:10.000"/>
    <entry producer="chain28" in="00:00:00.000" out="00:00:05.167"/>
    <entry producer="chain29" in="00:00:00.000" out="00:00:16.000"/>
    <entry producer="producer5" in="00:00:00.000" out="00:00:03.958"/>
    <entry producer="producer6" in="00:00:00.000" out="00:00:03.958"/>
    <entry producer="chain30" in="00:00:00.000" out="00:00:15.875"/>
    <entry producer="chain31" in="00:00:00.000" out="00:00:08.583"/>
    <entry producer="producer7" in="00:00:00.000" out="00:00:03.958"/>
    <entry producer="producer8" in="00:00:00.000" out="00:00:03.958"/>
    <entry producer="producer9" in="00:00:00.000" out="00:00:03.958"/>
    <entry producer="producer10" in="00:00:00.000" out="00:00:03.958"/>
    <entry producer="producer11" in="00:00:00.000" out="00:00:03.958"/>
    <entry producer="producer12" in="00:00:00.000" out="00:00:03.958"/>
    <entry producer="producer13" in="00:00:00.000" out="00:00:03.958"/>
    <entry producer="producer14" in="00:00:00.000" out="00:00:03.958"/>
    <entry producer="producer15" in="00:00:00.000" out="00:00:03.958"/>
    <entry producer="producer16" in="00:00:00.000" out="00:00:03.958"/>
  </playlist>
  <producer id="black" in="00:00:00.000" out="00:05:40.500">
    <property name="length">00:05:40.542</property>
    <property name="eof">pause</property>
    <property name="resource">0</property>
    <property name="aspect_ratio">1</property>
    <property name="mlt_service">color</property>
    <property name="mlt_image_format">rgba</property>
    <property name="set.test_audio">0</property>
  </producer>
  <playlist id="background">
    <entry producer="black" in="00:00:00.000" out="00:05:40.500"/>
  </playlist>
  <producer id="producer17" in="00:00:00.000" out="03:59:59.958">
    <property name="length">04:00:00.000</property>
    <property name="eof">pause</property>
    <property name="resource">C:/Users/dinet/Pictures/Screenshots/Screenshot 2025-01-30 204733.png</property>
    <property name="ttl">1</property>
    <property name="aspect_ratio">1</property>
    <property name="meta.media.progressive">1</property>
    <property name="seekable">1</property>
    <property name="format">2</property>
    <property name="meta.media.width">1439</property>
    <property name="meta.media.height">1079</property>
    <property name="mlt_service">qimage</property>
    <property name="creation_time">2025-01-30T15:17:33</property>
    <property name="shotcut:skipConvert">1</property>
    <property name="shotcut:bins">All</property>
    <property name="xml">was here</property>
    <property name="shotcut:hash">ed3b4db11e4de78f97635ed6cf602ae4</property>
    <property name="shotcut:caption">Screenshot 2025-01-30 204733.png</property>
  </producer>
  <producer id="producer18" in="00:00:00.000" out="03:59:59.958">
    <property name="length">04:00:00.000</property>
    <property name="eof">pause</property>
    <property name="resource">C:/Users/dinet/Pictures/Screenshots/Screenshot (12).png</property>
    <property name="ttl">1</property>
    <property name="aspect_ratio">1</property>
    <property name="meta.media.progressive">1</property>
    <property name="seekable">1</property>
    <property name="format">2</property>
    <property name="meta.media.width">1920</property>
    <property name="meta.media.height">1080</property>
    <property name="mlt_service">qimage</property>
    <property name="creation_time">2025-01-30T15:43:01</property>
    <property name="shotcut:skipConvert">1</property>
    <property name="shotcut:hash">10262210e91eb6dd3db175051ef2dc86</property>
    <property name="shotcut:caption">Screenshot (12).png</property>
    <property name="xml">was here</property>
  </producer>
  <producer id="producer19" in="00:00:00.000" out="03:59:59.958">
    <property name="length">04:00:00.000</property>
    <property name="eof">pause</property>
    <property name="resource">C:/Users/dinet/Pictures/Screenshots/Screenshot (13).png</property>
    <property name="ttl">1</property>
    <property name="aspect_ratio">1</property>
    <property name="meta.media.progressive">1</property>
    <property name="seekable">1</property>
    <property name="format">2</property>
    <property name="meta.media.width">1920</property>
    <property name="meta.media.height">1080</property>
    <property name="mlt_service">qimage</property>
    <property name="creation_time">2025-01-30T15:43:28</property>
    <property name="shotcut:skipConvert">1</property>
    <property name="shotcut:bins">All</property>
    <property name="xml">was here</property>
    <property name="shotcut:hash">af18d55b63c9968efadd4e5a55f7c60e</property>
    <property name="shotcut:caption">Screenshot (13).png</property>
  </producer>
  <chain id="chain32" out="00:00:10.000">
    <property name="length">00:00:10.042</property>
    <property name="eof">pause</property>
    <property name="resource">C:/Users/dinet/Documents/StationaryRe100.mp4</property>
    <property name="mlt_service">avformat-novalidate</property>
    <property name="meta.media.nb_streams">1</property>
    <property name="meta.media.0.stream.type">video</property>
    <property name="meta.media.0.stream.frame_rate">24</property>
    <property name="meta.media.0.stream.sample_aspect_ratio">0</property>
    <property name="meta.media.0.codec.width">1920</property>
    <property name="meta.media.0.codec.height">1080</property>
    <property name="meta.media.0.codec.rotate">0</property>
    <property name="meta.media.0.codec.pix_fmt">yuv420p</property>
    <property name="meta.media.0.codec.sample_aspect_ratio">1</property>
    <property name="meta.media.0.codec.colorspace">709</property>
    <property name="meta.media.0.codec.name">mpeg4</property>
    <property name="meta.media.0.codec.long_name">MPEG-4 part 2</property>
    <property name="meta.media.0.codec.bit_rate">2234717</property>
    <property name="meta.attr.0.stream.creation_time.markup">1970-01-01T00:00:00.000000Z</property>
    <property name="meta.attr.0.stream.handler_name.markup">VideoHandler</property>
    <property name="meta.attr.0.stream.vendor_id.markup">[0][0][0][0]</property>
    <property name="meta.attr.major_brand.markup">isom</property>
    <property name="meta.attr.minor_version.markup">512</property>
    <property name="meta.attr.compatible_brands.markup">mp41</property>
    <property name="meta.attr.creation_time.markup">1970-01-01T00:00:00.000000Z</property>
    <property name="seekable">1</property>
    <property name="meta.media.sample_aspect_num">1</property>
    <property name="meta.media.sample_aspect_den">1</property>
    <property name="audio_index">-1</property>
    <property name="video_index">0</property>
    <property name="vstream">0</property>
    <property name="meta.media.frame_rate_num">24</property>
    <property name="meta.media.frame_rate_den">1</property>
    <property name="meta.media.colorspace">709</property>
    <property name="meta.media.color_trc">2</property>
    <property name="meta.media.has_b_frames">0</property>
    <property name="meta.media.width">1920</property>
    <property name="meta.media.height">1080</property>
    <property name="meta.media.aspect_ratio">1</property>
    <property name="meta.media.color_range">mpeg</property>
    <property name="shotcut:skipConvert">1</property>
    <property name="shotcut:bins">All</property>
    <property name="xml">was here</property>
    <property name="shotcut:hash">8075d98be47799d54a23929312aac6c3</property>
    <property name="meta.media.top_field_first">0</property>
    <property name="meta.media.progressive">1</property>
    <property name="shotcut:caption">StationaryRe100.mp4</property>
  </chain>
  <chain id="chain33" out="00:00:05.167">
    <property name="length">00:00:05.208</property>
    <property name="eof">pause</property>
    <property name="resource">C:/Users/dinet/Videos/Screen Recordings/Screen Recording 2025-01-30 214210.mp4</property>
    <property name="mlt_service">avformat-novalidate</property>
    <property name="meta.media.nb_streams">2</property>
    <property name="meta.media.0.stream.type">video</property>
    <property name="meta.media.0.stream.frame_rate">30</property>
    <property name="meta.media.0.stream.sample_aspect_ratio">0</property>
    <property name="meta.media.0.codec.width">1920</property>
    <property name="meta.media.0.codec.height">1080</property>
    <property name="meta.media.0.codec.rotate">0</property>
    <property name="meta.media.0.codec.pix_fmt">yuv420p</property>
    <property name="meta.media.0.codec.sample_aspect_ratio">1</property>
    <property name="meta.media.0.codec.colorspace">709</property>
    <property name="meta.media.0.codec.name">h264</property>
    <property name="meta.media.0.codec.long_name">H.264 / AVC / MPEG-4 AVC / MPEG-4 part 10</property>
    <property name="meta.media.0.codec.bit_rate">3023162</property>
    <property name="meta.attr.0.stream.creation_time.markup">2025-01-30T16:12:05.000000Z</property>
    <property name="meta.attr.0.stream.handler_name.markup">VideoHandler</property>
    <property name="meta.attr.0.stream.vendor_id.markup">[0][0][0][0]</property>
    <property name="meta.attr.0.stream.encoder.markup">AVC Coding</property>
    <property name="meta.media.1.stream.type">audio</property>
    <property name="meta.media.1.codec.sample_fmt">fltp</property>
    <property name="meta.media.1.codec.sample_rate">48000</property>
    <property name="meta.media.1.codec.channels">2</property>
    <property name="meta.media.1.codec.layout">stereo</property>
    <property name="meta.media.1.codec.name">aac</property>
    <property name="meta.media.1.codec.long_name">AAC (Advanced Audio Coding)</property>
    <property name="meta.media.1.codec.bit_rate">192001</property>
    <property name="meta.attr.1.stream.creation_time.markup">2025-01-30T16:12:05.000000Z</property>
    <property name="meta.attr.1.stream.handler_name.markup">SoundHandler</property>
    <property name="meta.attr.1.stream.vendor_id.markup">[0][0][0][0]</property>
    <property name="meta.attr.major_brand.markup">mp42</property>
    <property name="meta.attr.minor_version.markup">0</property>
    <property name="meta.attr.compatible_brands.markup">mp41isom</property>
    <property name="meta.attr.creation_time.markup">2025-01-30T16:12:05.000000Z</property>
    <property name="seekable">1</property>
    <property name="meta.media.sample_aspect_num">1</property>
    <property name="meta.media.sample_aspect_den">1</property>
    <property name="audio_index">1</property>
    <property name="video_index">0</property>
    <property name="creation_time">2025-01-30T16:12:05</property>
    <property name="vstream">0</property>
    <property name="meta.media.frame_rate_num">30</property>
    <property name="meta.media.frame_rate_den">1</property>
    <property name="meta.media.colorspace">709</property>
    <property name="meta.media.color_trc">2</property>
    <property name="meta.media.has_b_frames">1</property>
    <property name="meta.media.width">1920</property>
    <property name="meta.media.height">1080</property>
    <property name="meta.media.aspect_ratio">1</property>
    <property name="meta.media.color_range">mpeg</property>
    <property name="astream">0</property>
    <property name="shotcut:skipConvert">1</property>
    <property name="shotcut:bins">All</property>
    <property name="xml">was here</property>
    <property name="shotcut:hash">90ec76ff4139fd8bcb1e93750b5e1fbc</property>
    <property name="meta.media.top_field_first">0</property>
    <property name="meta.media.progressive">1</property>
    <property name="shotcut:caption">Screen Recording 2025-01-30 214210.mp4</property>
  </chain>
  <producer id="producer20" in="00:00:00.000" out="03:59:59.958">
    <property name="length">04:00:00.000</property>
    <property name="eof">pause</property>
    <property name="resource">C:/Users/dinet/Pictures/Screenshots/Screenshot (14).png</property>
    <property name="ttl">1</property>
    <property name="aspect_ratio">1</property>
    <property name="meta.media.progressive">1</property>
    <property name="seekable">1</property>
    <property name="format">2</property>
    <property name="meta.media.width">1920</property>
    <property name="meta.media.height">1080</property>
    <property name="mlt_service">qimage</property>
    <property name="creation_time">2025-01-30T16:39:33</property>
    <property name="shotcut:skipConvert">1</property>
    <property name="shotcut:bins">All</property>
    <property name="xml">was here</property>
    <property name="shotcut:hash">c2f5572c01e487d0f690bf1f4e13c694</property>
    <property name="shotcut:caption">Screenshot (14).png</property>
  </producer>
  <chain id="chain34" out="00:00:15.875">
    <property name="length">00:00:15.917</property>
    <property name="eof">pause</property>
    <property name="resource">C:/Users/dinet/Videos/Screen Recordings/Screen Recording 2025-01-30 223334.mp4</property>
    <property name="mlt_service">avformat-novalidate</property>
    <property name="meta.media.nb_streams">2</property>
    <property name="meta.media.0.stream.type">video</property>
    <property name="meta.media.0.stream.frame_rate">30</property>
    <property name="meta.media.0.stream.sample_aspect_ratio">0</property>
    <property name="meta.media.0.codec.width">1920</property>
    <property name="meta.media.0.codec.height">1080</property>
    <property name="meta.media.0.codec.rotate">0</property>
    <property name="meta.media.0.codec.pix_fmt">yuv420p</property>
    <property name="meta.media.0.codec.sample_aspect_ratio">1</property>
    <property name="meta.media.0.codec.colorspace">709</property>
    <property name="meta.media.0.codec.name">h264</property>
    <property name="meta.media.0.codec.long_name">H.264 / AVC / MPEG-4 AVC / MPEG-4 part 10</property>
    <property name="meta.media.0.codec.bit_rate">8128463</property>
    <property name="meta.attr.0.stream.creation_time.markup">2025-01-30T17:03:19.000000Z</property>
    <property name="meta.attr.0.stream.handler_name.markup">VideoHandler</property>
    <property name="meta.attr.0.stream.vendor_id.markup">[0][0][0][0]</property>
    <property name="meta.attr.0.stream.encoder.markup">AVC Coding</property>
    <property name="meta.media.1.stream.type">audio</property>
    <property name="meta.media.1.codec.sample_fmt">fltp</property>
    <property name="meta.media.1.codec.sample_rate">48000</property>
    <property name="meta.media.1.codec.channels">2</property>
    <property name="meta.media.1.codec.layout">stereo</property>
    <property name="meta.media.1.codec.name">aac</property>
    <property name="meta.media.1.codec.long_name">AAC (Advanced Audio Coding)</property>
    <property name="meta.media.1.codec.bit_rate">192001</property>
    <property name="meta.attr.1.stream.creation_time.markup">2025-01-30T17:03:19.000000Z</property>
    <property name="meta.attr.1.stream.handler_name.markup">SoundHandler</property>
    <property name="meta.attr.1.stream.vendor_id.markup">[0][0][0][0]</property>
    <property name="meta.attr.major_brand.markup">mp42</property>
    <property name="meta.attr.minor_version.markup">0</property>
    <property name="meta.attr.compatible_brands.markup">mp41isom</property>
    <property name="meta.attr.creation_time.markup">2025-01-30T17:03:19.000000Z</property>
    <property name="seekable">1</property>
    <property name="meta.media.sample_aspect_num">1</property>
    <property name="meta.media.sample_aspect_den">1</property>
    <property name="audio_index">1</property>
    <property name="video_index">0</property>
    <property name="creation_time">2025-01-30T17:03:19</property>
    <property name="vstream">0</property>
    <property name="meta.media.frame_rate_num">30</property>
    <property name="meta.media.frame_rate_den">1</property>
    <property name="meta.media.colorspace">709</property>
    <property name="meta.media.color_trc">2</property>
    <property name="meta.media.has_b_frames">1</property>
    <property name="meta.media.width">1920</property>
    <property name="meta.media.height">1080</property>
    <property name="meta.media.aspect_ratio">1</property>
    <property name="meta.media.color_range">mpeg</property>
    <property name="astream">0</property>
    <property name="shotcut:skipConvert">1</property>
    <property name="shotcut:bins">All</property>
    <property name="xml">was here</property>
    <property name="shotcut:hash">5e960142b7eb7e2510ea05390bc638dc</property>
    <property name="meta.media.top_field_first">0</property>
    <property name="meta.media.progressive">1</property>
    <property name="shotcut:caption">Screen Recording 2025-01-30 223334.mp4</property>
  </chain>
  <chain id="chain35" out="00:00:16.000">
    <property name="length">00:00:16.042</property>
    <property name="eof">pause</property>
    <property name="resource">C:/Users/dinet/Videos/Screen Recordings/Screen Recording 2025-01-30 214933.mp4</property>
    <property name="mlt_service">avformat-novalidate</property>
    <property name="meta.media.nb_streams">2</property>
    <property name="meta.media.0.stream.type">video</property>
    <property name="meta.media.0.stream.frame_rate">30</property>
    <property name="meta.media.0.stream.sample_aspect_ratio">0</property>
    <property name="meta.media.0.codec.width">1920</property>
    <property name="meta.media.0.codec.height">1080</property>
    <property name="meta.media.0.codec.rotate">0</property>
    <property name="meta.media.0.codec.pix_fmt">yuv420p</property>
    <property name="meta.media.0.codec.sample_aspect_ratio">1</property>
    <property name="meta.media.0.codec.colorspace">709</property>
    <property name="meta.media.0.codec.name">h264</property>
    <property name="meta.media.0.codec.long_name">H.264 / AVC / MPEG-4 AVC / MPEG-4 part 10</property>
    <property name="meta.media.0.codec.bit_rate">8493673</property>
    <property name="meta.attr.0.stream.creation_time.markup">2025-01-30T16:19:17.000000Z</property>
    <property name="meta.attr.0.stream.handler_name.markup">VideoHandler</property>
    <property name="meta.attr.0.stream.vendor_id.markup">[0][0][0][0]</property>
    <property name="meta.attr.0.stream.encoder.markup">AVC Coding</property>
    <property name="meta.media.1.stream.type">audio</property>
    <property name="meta.media.1.codec.sample_fmt">fltp</property>
    <property name="meta.media.1.codec.sample_rate">48000</property>
    <property name="meta.media.1.codec.channels">2</property>
    <property name="meta.media.1.codec.layout">stereo</property>
    <property name="meta.media.1.codec.name">aac</property>
    <property name="meta.media.1.codec.long_name">AAC (Advanced Audio Coding)</property>
    <property name="meta.media.1.codec.bit_rate">192187</property>
    <property name="meta.attr.1.stream.creation_time.markup">2025-01-30T16:19:17.000000Z</property>
    <property name="meta.attr.1.stream.handler_name.markup">SoundHandler</property>
    <property name="meta.attr.1.stream.vendor_id.markup">[0][0][0][0]</property>
    <property name="meta.attr.major_brand.markup">mp42</property>
    <property name="meta.attr.minor_version.markup">0</property>
    <property name="meta.attr.compatible_brands.markup">mp41isom</property>
    <property name="meta.attr.creation_time.markup">2025-01-30T16:19:17.000000Z</property>
    <property name="seekable">1</property>
    <property name="meta.media.sample_aspect_num">1</property>
    <property name="meta.media.sample_aspect_den">1</property>
    <property name="audio_index">1</property>
    <property name="video_index">0</property>
    <property name="creation_time">2025-01-30T16:19:17</property>
    <property name="vstream">0</property>
    <property name="meta.media.frame_rate_num">30</property>
    <property name="meta.media.frame_rate_den">1</property>
    <property name="meta.media.colorspace">709</property>
    <property name="meta.media.color_trc">2</property>
    <property name="meta.media.has_b_frames">1</property>
    <property name="meta.media.width">1920</property>
    <property name="meta.media.height">1080</property>
    <property name="meta.media.aspect_ratio">1</property>
    <property name="meta.media.color_range">mpeg</property>
    <property name="astream">0</property>
    <property name="shotcut:skipConvert">1</property>
    <property name="shotcut:bins">All</property>
    <property name="xml">was here</property>
    <property name="shotcut:hash">2dcd7dd91b5b0c003ca717e65f120961</property>
    <property name="meta.media.top_field_first">0</property>
    <property name="meta.media.progressive">1</property>
    <property name="shotcut:caption">Screen Recording 2025-01-30 214933.mp4</property>
    <property name="meta.shotcut.vui">1</property>
    <filter id="filter0" in="00:00:05.500" out="00:00:12.917">
      <property name="argument"></property>
      <property name="geometry">295 835 1361 187 1</property>
      <property name="family">Sans</property>
      <property name="size">48</property>
      <property name="weight">400</property>
      <property name="style">normal</property>
      <property name="fgcolour">0x000000ff</property>
      <property name="bgcolour">#00000000</property>
      <property name="olcolour">0x00000000</property>
      <property name="pad">0</property>
      <property name="halign">left</property>
      <property name="valign">top</property>
      <property name="outline">0</property>
      <property name="pixel_ratio">1</property>
      <property name="opacity">1</property>
      <property name="mlt_service">qtext</property>
      <property name="shotcut:filter">richText</property>
      <property name="html">&lt;!DOCTYPE HTML PUBLIC &quot;-//W3C//DTD HTML 4.0//EN&quot; &quot;http://www.w3.org/TR/REC-html40/strict.dtd&quot;&gt;
&lt;html&gt;&lt;head&gt;&lt;meta name=&quot;qrichtext&quot; content=&quot;1&quot; /&gt;&lt;meta charset=&quot;utf-8&quot; /&gt;&lt;style type=&quot;text/css&quot;&gt;
p, li { white-space: pre-wrap; }
hr { height: 1px; border-width: 0; }
li.unchecked::marker { content: &quot;\2610&quot;; }
li.checked::marker { content: &quot;\2612&quot;; }
&lt;/style&gt;&lt;/head&gt;&lt;body style=&quot; font-family:'Segoe UI'; font-size:9pt; font-weight:400; font-style:normal;&quot;&gt;
&lt;p style=&quot; margin-top:0px; margin-bottom:0px; margin-left:0px; margin-right:0px; -qt-block-indent:0; text-indent:0px;&quot;&gt;&lt;span style=&quot; font-family:'Verdana'; font-size:35pt; font-weight:700; color:#000000;&quot;&gt;Tacoma Narrows bridge collapse due to flow induced vibrations  &lt;/span&gt;&lt;/p&gt;&lt;/body&gt;&lt;/html&gt;</property>
      <property name="shotcut:animIn">00:00:00.000</property>
      <property name="shotcut:animOut">00:00:00.000</property>
    </filter>
  </chain>
  <producer id="producer21" in="00:00:00.000" out="03:59:59.958">
    <property name="length">04:00:00.000</property>
    <property name="eof">pause</property>
    <property name="resource">C:/Users/dinet/Downloads/science-word-concept/3811709.jpg</property>
    <property name="ttl">1</property>
    <property name="aspect_ratio">1</property>
    <property name="meta.media.progressive">1</property>
    <property name="seekable">1</property>
    <property name="format">1</property>
    <property name="meta.media.width">3000</property>
    <property name="meta.media.height">2000</property>
    <property name="mlt_service">qimage</property>
    <property name="creation_time">2025-01-30T16:59:08</property>
    <property name="shotcut:skipConvert">1</property>
    <property name="shotcut:bins">All</property>
    <property name="xml">was here</property>
    <property name="shotcut:hash">eb6c32dfea6a75b2bbd0060320d9e020</property>
    <property name="shotcut:caption">3811709.jpg</property>
  </producer>
  <chain id="chain36" out="00:00:08.583">
    <property name="length">00:00:08.625</property>
    <property name="eof">pause</property>
    <property name="resource">C:/Users/dinet/Videos/Screen Recordings/Screen Recording 2025-01-30 223735.mp4</property>
    <property name="mlt_service">avformat-novalidate</property>
    <property name="meta.media.nb_streams">2</property>
    <property name="meta.media.0.stream.type">video</property>
    <property name="meta.media.0.stream.frame_rate">30</property>
    <property name="meta.media.0.stream.sample_aspect_ratio">0</property>
    <property name="meta.media.0.codec.width">1782</property>
    <property name="meta.media.0.codec.height">916</property>
    <property name="meta.media.0.codec.rotate">0</property>
    <property name="meta.media.0.codec.pix_fmt">yuv420p</property>
    <property name="meta.media.0.codec.sample_aspect_ratio">1</property>
    <property name="meta.media.0.codec.colorspace">709</property>
    <property name="meta.media.0.codec.name">h264</property>
    <property name="meta.media.0.codec.long_name">H.264 / AVC / MPEG-4 AVC / MPEG-4 part 10</property>
    <property name="meta.media.0.codec.bit_rate">2416810</property>
    <property name="meta.attr.0.stream.creation_time.markup">2025-01-30T17:07:27.000000Z</property>
    <property name="meta.attr.0.stream.handler_name.markup">VideoHandler</property>
    <property name="meta.attr.0.stream.vendor_id.markup">[0][0][0][0]</property>
    <property name="meta.attr.0.stream.encoder.markup">AVC Coding</property>
    <property name="meta.media.1.stream.type">audio</property>
    <property name="meta.media.1.codec.sample_fmt">fltp</property>
    <property name="meta.media.1.codec.sample_rate">48000</property>
    <property name="meta.media.1.codec.channels">2</property>
    <property name="meta.media.1.codec.layout">stereo</property>
    <property name="meta.media.1.codec.name">aac</property>
    <property name="meta.media.1.codec.long_name">AAC (Advanced Audio Coding)</property>
    <property name="meta.media.1.codec.bit_rate">192001</property>
    <property name="meta.attr.1.stream.creation_time.markup">2025-01-30T17:07:27.000000Z</property>
    <property name="meta.attr.1.stream.handler_name.markup">SoundHandler</property>
    <property name="meta.attr.1.stream.vendor_id.markup">[0][0][0][0]</property>
    <property name="meta.attr.major_brand.markup">mp42</property>
    <property name="meta.attr.minor_version.markup">0</property>
    <property name="meta.attr.compatible_brands.markup">mp41isom</property>
    <property name="meta.attr.creation_time.markup">2025-01-30T17:07:27.000000Z</property>
    <property name="seekable">1</property>
    <property name="meta.media.sample_aspect_num">1</property>
    <property name="meta.media.sample_aspect_den">1</property>
    <property name="audio_index">1</property>
    <property name="video_index">0</property>
    <property name="creation_time">2025-01-30T17:07:27</property>
    <property name="vstream">0</property>
    <property name="meta.media.frame_rate_num">30</property>
    <property name="meta.media.frame_rate_den">1</property>
    <property name="meta.media.colorspace">709</property>
    <property name="meta.media.color_trc">2</property>
    <property name="meta.media.has_b_frames">1</property>
    <property name="meta.media.width">1782</property>
    <property name="meta.media.height">916</property>
    <property name="meta.media.aspect_ratio">1</property>
    <property name="meta.media.color_range">mpeg</property>
    <property name="astream">0</property>
    <property name="shotcut:skipConvert">1</property>
    <property name="shotcut:bins">All</property>
    <property name="xml">was here</property>
    <property name="shotcut:hash">c8e6af41b09c2746756a357f55a795ef</property>
    <property name="meta.media.top_field_first">0</property>
    <property name="meta.media.progressive">1</property>
    <property name="shotcut:caption">Screen Recording 2025-01-30 223735.mp4</property>
  </chain>
  <chain id="chain37" out="00:00:51.375">
    <property name="length">00:00:51.417</property>
    <property name="eof">pause</property>
    <property name="resource">C:/Users/dinet/Videos/Screen Recordings/Screen Recording 2025-01-30 224119.mp4</property>
    <property name="mlt_service">avformat-novalidate</property>
    <property name="meta.media.nb_streams">2</property>
    <property name="meta.media.0.stream.type">video</property>
    <property name="meta.media.0.stream.frame_rate">30</property>
    <property name="meta.media.0.stream.sample_aspect_ratio">0</property>
    <property name="meta.media.0.codec.width">952</property>
    <property name="meta.media.0.codec.height">708</property>
    <property name="meta.media.0.codec.rotate">0</property>
    <property name="meta.media.0.codec.pix_fmt">yuv420p</property>
    <property name="meta.media.0.codec.sample_aspect_ratio">1</property>
    <property name="meta.media.0.codec.colorspace">601</property>
    <property name="meta.media.0.codec.name">h264</property>
    <property name="meta.media.0.codec.long_name">H.264 / AVC / MPEG-4 AVC / MPEG-4 part 10</property>
    <property name="meta.media.0.codec.bit_rate">2376037</property>
    <property name="meta.attr.0.stream.creation_time.markup">2025-01-30T17:10:28.000000Z</property>
    <property name="meta.attr.0.stream.handler_name.markup">VideoHandler</property>
    <property name="meta.attr.0.stream.vendor_id.markup">[0][0][0][0]</property>
    <property name="meta.attr.0.stream.encoder.markup">AVC Coding</property>
    <property name="meta.media.1.stream.type">audio</property>
    <property name="meta.media.1.codec.sample_fmt">fltp</property>
    <property name="meta.media.1.codec.sample_rate">48000</property>
    <property name="meta.media.1.codec.channels">2</property>
    <property name="meta.media.1.codec.layout">stereo</property>
    <property name="meta.media.1.codec.name">aac</property>
    <property name="meta.media.1.codec.long_name">AAC (Advanced Audio Coding)</property>
    <property name="meta.media.1.codec.bit_rate">192001</property>
    <property name="meta.attr.1.stream.creation_time.markup">2025-01-30T17:10:28.000000Z</property>
    <property name="meta.attr.1.stream.handler_name.markup">SoundHandler</property>
    <property name="meta.attr.1.stream.vendor_id.markup">[0][0][0][0]</property>
    <property name="meta.attr.major_brand.markup">mp42</property>
    <property name="meta.attr.minor_version.markup">0</property>
    <property name="meta.attr.compatible_brands.markup">mp41isom</property>
    <property name="meta.attr.creation_time.markup">2025-01-30T17:10:28.000000Z</property>
    <property name="seekable">1</property>
    <property name="meta.media.sample_aspect_num">1</property>
    <property name="meta.media.sample_aspect_den">1</property>
    <property name="audio_index">1</property>
    <property name="video_index">0</property>
    <property name="creation_time">2025-01-30T17:10:28</property>
    <property name="vstream">0</property>
    <property name="meta.media.frame_rate_num">30</property>
    <property name="meta.media.frame_rate_den">1</property>
    <property name="meta.media.colorspace">601</property>
    <property name="meta.media.color_trc">2</property>
    <property name="meta.media.has_b_frames">1</property>
    <property name="meta.media.width">952</property>
    <property name="meta.media.height">708</property>
    <property name="meta.media.aspect_ratio">1</property>
    <property name="meta.media.color_range">mpeg</property>
    <property name="astream">0</property>
    <property name="shotcut:skipConvert">1</property>
    <property name="shotcut:bins">All</property>
    <property name="xml">was here</property>
    <property name="shotcut:hash">65e478fab7729de526b0e585619c30a3</property>
    <property name="meta.media.top_field_first">0</property>
    <property name="meta.media.progressive">1</property>
    <property name="shotcut:caption">Screen Recording 2025-01-30 224119.mp4</property>
  </chain>
  <producer id="producer22" in="00:00:00.000" out="03:59:59.958">
    <property name="length">04:00:00.000</property>
    <property name="eof">pause</property>
    <property name="resource">C:/Users/dinet/Pictures/Screenshots/Screenshot (16).png</property>
    <property name="ttl">1</property>
    <property name="aspect_ratio">1</property>
    <property name="meta.media.progressive">1</property>
    <property name="seekable">1</property>
    <property name="format">2</property>
    <property name="meta.media.width">1920</property>
    <property name="meta.media.height">1080</property>
    <property name="mlt_service">qimage</property>
    <property name="creation_time">2025-01-30T17:19:03</property>
    <property name="shotcut:skipConvert">1</property>
    <property name="shotcut:bins">All</property>
    <property name="xml">was here</property>
    <property name="shotcut:hash">7187d27cb5754efc4288a3e7fe8eda2f</property>
    <property name="shotcut:caption">Screenshot (16).png</property>
  </producer>
  <producer id="producer23" in="00:00:00.000" out="03:59:59.958">
    <property name="length">04:00:00.000</property>
    <property name="eof">pause</property>
    <property name="resource">C:/Users/dinet/Pictures/Screenshots/Screenshot (17).png</property>
    <property name="ttl">1</property>
    <property name="aspect_ratio">1</property>
    <property name="meta.media.progressive">1</property>
    <property name="seekable">1</property>
    <property name="format">2</property>
    <property name="meta.media.width">1920</property>
    <property name="meta.media.height">1080</property>
    <property name="mlt_service">qimage</property>
    <property name="creation_time">2025-01-30T17:23:00</property>
    <property name="shotcut:skipConvert">1</property>
    <property name="shotcut:bins">All</property>
    <property name="xml">was here</property>
    <property name="shotcut:hash">6debae607428499e4eec13e08c58d2e2</property>
    <property name="shotcut:caption">Screenshot (17).png</property>
  </producer>
  <producer id="producer24" in="00:00:00.000" out="03:59:59.958">
    <property name="length">04:00:00.000</property>
    <property name="eof">pause</property>
    <property name="resource">C:/Users/dinet/Pictures/Screenshots/Screenshot (18).png</property>
    <property name="ttl">1</property>
    <property name="aspect_ratio">1</property>
    <property name="meta.media.progressive">1</property>
    <property name="seekable">1</property>
    <property name="format">2</property>
    <property name="meta.media.width">1920</property>
    <property name="meta.media.height">1080</property>
    <property name="mlt_service">qimage</property>
    <property name="creation_time">2025-01-30T17:41:21</property>
    <property name="shotcut:skipConvert">1</property>
    <property name="shotcut:bins">All</property>
    <property name="xml">was here</property>
    <property name="shotcut:hash">92db3f0336b73619e608f67823cf7ba5</property>
    <property name="shotcut:caption">Screenshot (18).png</property>
  </producer>
  <producer id="producer25" in="00:00:00.000" out="03:59:59.958">
    <property name="length">04:00:00.000</property>
    <property name="eof">pause</property>
    <property name="resource">C:/Users/dinet/Pictures/Screenshots/Screenshot (19).png</property>
    <property name="ttl">1</property>
    <property name="aspect_ratio">1</property>
    <property name="meta.media.progressive">1</property>
    <property name="seekable">1</property>
    <property name="format">2</property>
    <property name="meta.media.width">1920</property>
    <property name="meta.media.height">1080</property>
    <property name="mlt_service">qimage</property>
    <property name="creation_time">2025-01-30T17:52:36</property>
    <property name="shotcut:skipConvert">1</property>
    <property name="shotcut:bins">All</property>
    <property name="xml">was here</property>
    <property name="shotcut:hash">9d21e0d35466811f35e9c4c0991a9b6d</property>
    <property name="shotcut:caption">Screenshot (19).png</property>
  </producer>
  <producer id="producer26" in="00:00:00.000" out="03:59:59.958">
    <property name="length">04:00:00.000</property>
    <property name="eof">pause</property>
    <property name="resource">C:/Users/dinet/Pictures/Screenshots/Screenshot (21).png</property>
    <property name="ttl">1</property>
    <property name="aspect_ratio">1</property>
    <property name="meta.media.progressive">1</property>
    <property name="seekable">1</property>
    <property name="format">2</property>
    <property name="meta.media.width">1920</property>
    <property name="meta.media.height">1080</property>
    <property name="mlt_service">qimage</property>
    <property name="creation_time">2025-01-30T18:10:41</property>
    <property name="shotcut:skipConvert">1</property>
    <property name="shotcut:bins">All</property>
    <property name="xml">was here</property>
    <property name="shotcut:hash">108c49ff5cda63072d8ced4307fbc57b</property>
    <property name="shotcut:caption">Screenshot (21).png</property>
  </producer>
  <producer id="producer27" in="00:00:00.000" out="03:59:59.958">
    <property name="length">04:00:00.000</property>
    <property name="eof">pause</property>
    <property name="resource">C:/Users/dinet/Pictures/Screenshots/Screenshot (22).png</property>
    <property name="ttl">1</property>
    <property name="aspect_ratio">1</property>
    <property name="meta.media.progressive">1</property>
    <property name="seekable">1</property>
    <property name="format">2</property>
    <property name="meta.media.width">1920</property>
    <property name="meta.media.height">1080</property>
    <property name="mlt_service">qimage</property>
    <property name="creation_time">2025-01-30T18:10:43</property>
    <property name="shotcut:skipConvert">1</property>
    <property name="shotcut:bins">All</property>
    <property name="xml">was here</property>
    <property name="shotcut:hash">c136206bd6901aaa3cab0a69ca529149</property>
    <property name="shotcut:caption">Screenshot (22).png</property>
  </producer>
  <producer id="producer28" in="00:00:00.000" out="03:59:59.958">
    <property name="length">04:00:00.000</property>
    <property name="eof">pause</property>
    <property name="resource">C:/Users/dinet/Pictures/Screenshots/Screenshot (26).png</property>
    <property name="ttl">1</property>
    <property name="aspect_ratio">1</property>
    <property name="meta.media.progressive">1</property>
    <property name="seekable">1</property>
    <property name="format">2</property>
    <property name="meta.media.width">1920</property>
    <property name="meta.media.height">1080</property>
    <property name="mlt_service">qimage</property>
    <property name="creation_time">2025-01-30T18:25:51</property>
    <property name="shotcut:skipConvert">1</property>
    <property name="shotcut:hash">9cc49e646b5939476cdba4355d66b8aa</property>
    <property name="shotcut:caption">Screenshot (26).png</property>
    <property name="xml">was here</property>
  </producer>
  <producer id="producer29" in="00:00:00.000" out="03:59:59.958">
    <property name="length">04:00:00.000</property>
    <property name="eof">pause</property>
    <property name="resource">C:/Users/dinet/Pictures/Screenshots/Screenshot (27).png</property>
    <property name="ttl">1</property>
    <property name="aspect_ratio">1</property>
    <property name="meta.media.progressive">1</property>
    <property name="seekable">1</property>
    <property name="format">2</property>
    <property name="meta.media.width">1920</property>
    <property name="meta.media.height">1080</property>
    <property name="mlt_service">qimage</property>
    <property name="creation_time">2025-01-30T18:39:54</property>
    <property name="shotcut:skipConvert">1</property>
    <property name="shotcut:bins">All</property>
    <property name="xml">was here</property>
    <property name="shotcut:hash">7caa2b019ddc485074e83965d22174f7</property>
    <property name="shotcut:caption">Screenshot (27).png</property>
  </producer>
  <producer id="producer30" in="00:00:00.000" out="03:59:59.958">
    <property name="length">04:00:00.000</property>
    <property name="eof">pause</property>
    <property name="resource">C:/Users/dinet/Pictures/Screenshots/Screenshot (28).png</property>
    <property name="ttl">1</property>
    <property name="aspect_ratio">1</property>
    <property name="meta.media.progressive">1</property>
    <property name="seekable">1</property>
    <property name="format">2</property>
    <property name="meta.media.width">1920</property>
    <property name="meta.media.height">1080</property>
    <property name="mlt_service">qimage</property>
    <property name="creation_time">2025-01-30T18:47:19</property>
    <property name="shotcut:skipConvert">1</property>
    <property name="shotcut:bins">All</property>
    <property name="xml">was here</property>
    <property name="shotcut:hash">317bf7beaa7cbc80eeb00a8bdba0f062</property>
    <property name="shotcut:caption">Screenshot (28).png</property>
  </producer>
  <producer id="producer31" in="00:00:00.000" out="03:59:59.958">
    <property name="length">04:00:00.000</property>
    <property name="eof">pause</property>
    <property name="resource">C:/Users/dinet/Pictures/Screenshots/Screenshot (29).png</property>
    <property name="ttl">1</property>
    <property name="aspect_ratio">1</property>
    <property name="meta.media.progressive">1</property>
    <property name="seekable">1</property>
    <property name="format">2</property>
    <property name="meta.media.width">1920</property>
    <property name="meta.media.height">1080</property>
    <property name="mlt_service">qimage</property>
    <property name="creation_time">2025-01-30T19:00:59</property>
    <property name="shotcut:skipConvert">1</property>
    <property name="shotcut:bins">All</property>
    <property name="xml">was here</property>
    <property name="shotcut:hash">f642f49d172e4fa87e62932f739c3a92</property>
    <property name="shotcut:caption">Screenshot (29).png</property>
  </producer>
  <producer id="producer32" in="00:00:00.000" out="03:59:59.958">
    <property name="length">04:00:00.000</property>
    <property name="eof">pause</property>
    <property name="resource">C:/Users/dinet/Pictures/Screenshots/Screenshot (30).png</property>
    <property name="ttl">1</property>
    <property name="aspect_ratio">1</property>
    <property name="meta.media.progressive">1</property>
    <property name="seekable">1</property>
    <property name="format">2</property>
    <property name="meta.media.width">1920</property>
    <property name="meta.media.height">1080</property>
    <property name="mlt_service">qimage</property>
    <property name="creation_time">2025-01-30T19:05:13</property>
    <property name="shotcut:skipConvert">1</property>
    <property name="shotcut:hash">3b4d057828c7273f4a981cbb0d18b59f</property>
    <property name="shotcut:caption">Screenshot (30).png</property>
  </producer>
  <producer id="producer33" in="00:00:00.000" out="03:59:59.958">
    <property name="length">04:00:00.000</property>
    <property name="eof">pause</property>
    <property name="resource">C:/Users/dinet/Pictures/Screenshots/Screenshot (31).png</property>
    <property name="ttl">1</property>
    <property name="aspect_ratio">1</property>
    <property name="meta.media.progressive">1</property>
    <property name="seekable">1</property>
    <property name="format">2</property>
    <property name="meta.media.width">1920</property>
    <property name="meta.media.height">1080</property>
    <property name="mlt_service">qimage</property>
    <property name="creation_time">2025-01-30T19:12:58</property>
    <property name="shotcut:skipConvert">1</property>
    <property name="shotcut:bins">All</property>
    <property name="xml">was here</property>
    <property name="shotcut:hash">16f92c033b32ec2f17ae5bb919eec8fe</property>
    <property name="shotcut:caption">Screenshot (31).png</property>
  </producer>
  <playlist id="playlist0">
    <property name="shotcut:video">1</property>
    <property name="shotcut:name">V1</property>
    <blank length="00:00:00.042"/>
    <entry producer="producer17" in="00:00:00.000" out="00:00:17.458"/>
    <entry producer="producer18" in="00:00:00.000" out="00:00:04.958"/>
    <entry producer="producer19" in="00:00:00.000" out="00:00:08.125"/>
    <entry producer="chain32" in="00:00:00.000" out="00:00:06.250"/>
    <blank length="00:00:00.042"/>
    <entry producer="chain33" in="00:00:00.000" out="00:00:03.667"/>
    <entry producer="producer20" in="00:00:02.875" out="00:00:07.250"/>
    <entry producer="chain34" in="00:00:03.333" out="00:00:13.708"/>
    <entry producer="chain35" in="00:00:05.500" out="00:00:12.917"/>
    <entry producer="producer21" in="00:00:00.000" out="00:00:03.917"/>
    <entry producer="chain36" in="00:00:00.000" out="00:00:05.000"/>
    <entry producer="chain37" in="00:00:00.000" out="00:00:21.875"/>
    <entry producer="producer22" in="00:00:00.000" out="00:00:06.167"/>
    <entry producer="producer23" in="00:00:00.000" out="00:00:04.792"/>
    <entry producer="producer24" in="00:00:00.000" out="00:00:17.833"/>
    <entry producer="producer25" in="00:00:00.000" out="00:00:19.000"/>
    <blank length="00:00:00.083"/>
    <entry producer="producer26" in="00:00:00.000" out="00:00:11.375"/>
    <entry producer="producer27" in="00:00:00.000" out="00:00:14.750"/>
    <entry producer="producer28" in="00:00:00.000" out="00:00:20.750"/>
    <entry producer="producer29" in="00:00:00.000" out="00:00:05.625"/>
    <blank length="00:00:04.125"/>
    <entry producer="producer30" in="00:00:00.000" out="00:00:38.292"/>
    <entry producer="producer31" in="00:00:00.000" out="00:00:35.625"/>
    <entry producer="producer32" in="00:00:00.000" out="00:01:00.000"/>
    <entry producer="producer33" in="00:00:00.000" out="00:00:07.625"/>
  </playlist>
  <chain id="chain38" out="00:00:17.500">
    <property name="length">00:00:17.542</property>
    <property name="eof">pause</property>
    <property name="resource">C:/Users/dinet/Downloads/Telegram Desktop/1.m4a</property>
    <property name="mlt_service">avformat-novalidate</property>
    <property name="meta.media.nb_streams">1</property>
    <property name="meta.media.0.stream.type">audio</property>
    <property name="meta.media.0.codec.sample_fmt">fltp</property>
    <property name="meta.media.0.codec.sample_rate">44100</property>
    <property name="meta.media.0.codec.channels">1</property>
    <property name="meta.media.0.codec.layout">mono</property>
    <property name="meta.media.0.codec.name">aac</property>
    <property name="meta.media.0.codec.long_name">AAC (Advanced Audio Coding)</property>
    <property name="meta.media.0.codec.bit_rate">128017</property>
    <property name="meta.attr.0.stream.creation_time.markup">2025-01-30T11:25:24.000000Z</property>
    <property name="meta.attr.0.stream.language.markup">eng</property>
    <property name="meta.attr.0.stream.handler_name.markup">SoundHandle</property>
    <property name="meta.attr.0.stream.vendor_id.markup">[0][0][0][0]</property>
    <property name="meta.attr.major_brand.markup">3gp4</property>
    <property name="meta.attr.minor_version.markup">0</property>
    <property name="meta.attr.compatible_brands.markup">isom3gp4</property>
    <property name="meta.attr.creation_time.markup">2025-01-30T11:25:24.000000Z</property>
    <property name="meta.attr.com.android.version.markup">14</property>
    <property name="seekable">1</property>
    <property name="audio_index">0</property>
    <property name="video_index">-1</property>
    <property name="creation_time">2025-01-30T11:25:24</property>
    <property name="astream">0</property>
    <property name="shotcut:skipConvert">1</property>
    <property name="shotcut:bins">All</property>
    <property name="xml">was here</property>
    <property name="shotcut:hash">88b0708c9f7e9aac1efa836b2b757b98</property>
    <property name="ignore_points">1</property>
    <property name="shotcut:caption">1.m4a</property>
  </chain>
  <chain id="chain39" out="00:00:19.458">
    <property name="length">00:00:19.500</property>
    <property name="eof">pause</property>
    <property name="resource">C:/Users/dinet/Downloads/Telegram Desktop/2.m4a</property>
    <property name="mlt_service">avformat-novalidate</property>
    <property name="meta.media.nb_streams">1</property>
    <property name="meta.media.0.stream.type">audio</property>
    <property name="meta.media.0.codec.sample_fmt">fltp</property>
    <property name="meta.media.0.codec.sample_rate">44100</property>
    <property name="meta.media.0.codec.channels">1</property>
    <property name="meta.media.0.codec.layout">mono</property>
    <property name="meta.media.0.codec.name">aac</property>
    <property name="meta.media.0.codec.long_name">AAC (Advanced Audio Coding)</property>
    <property name="meta.media.0.codec.bit_rate">128008</property>
    <property name="meta.attr.0.stream.creation_time.markup">2025-01-30T11:26:58.000000Z</property>
    <property name="meta.attr.0.stream.language.markup">eng</property>
    <property name="meta.attr.0.stream.handler_name.markup">SoundHandle</property>
    <property name="meta.attr.0.stream.vendor_id.markup">[0][0][0][0]</property>
    <property name="meta.attr.major_brand.markup">3gp4</property>
    <property name="meta.attr.minor_version.markup">0</property>
    <property name="meta.attr.compatible_brands.markup">isom3gp4</property>
    <property name="meta.attr.creation_time.markup">2025-01-30T11:26:58.000000Z</property>
    <property name="meta.attr.com.android.version.markup">14</property>
    <property name="seekable">1</property>
    <property name="audio_index">0</property>
    <property name="video_index">-1</property>
    <property name="creation_time">2025-01-30T11:26:58</property>
    <property name="astream">0</property>
    <property name="shotcut:skipConvert">1</property>
    <property name="shotcut:hash">6d6f71e56630b3f71152fd93fec3bf52</property>
    <property name="ignore_points">0</property>
    <property name="mute_on_pause">0</property>
    <property name="shotcut:bins">All</property>
    <property name="xml">was here</property>
    <property name="shotcut:caption">2.m4a</property>
  </chain>
  <chain id="chain40" out="00:00:31.250">
    <property name="length">00:00:31.292</property>
    <property name="eof">pause</property>
    <property name="resource">C:/Users/dinet/Downloads/Telegram Desktop/3.m4a</property>
    <property name="mlt_service">avformat-novalidate</property>
    <property name="meta.media.nb_streams">1</property>
    <property name="meta.media.0.stream.type">audio</property>
    <property name="meta.media.0.codec.sample_fmt">fltp</property>
    <property name="meta.media.0.codec.sample_rate">44100</property>
    <property name="meta.media.0.codec.channels">1</property>
    <property name="meta.media.0.codec.layout">mono</property>
    <property name="meta.media.0.codec.name">aac</property>
    <property name="meta.media.0.codec.long_name">AAC (Advanced Audio Coding)</property>
    <property name="meta.media.0.codec.bit_rate">128012</property>
    <property name="meta.attr.0.stream.creation_time.markup">2025-01-30T11:27:49.000000Z</property>
    <property name="meta.attr.0.stream.language.markup">eng</property>
    <property name="meta.attr.0.stream.handler_name.markup">SoundHandle</property>
    <property name="meta.attr.0.stream.vendor_id.markup">[0][0][0][0]</property>
    <property name="meta.attr.major_brand.markup">3gp4</property>
    <property name="meta.attr.minor_version.markup">0</property>
    <property name="meta.attr.compatible_brands.markup">isom3gp4</property>
    <property name="meta.attr.creation_time.markup">2025-01-30T11:27:49.000000Z</property>
    <property name="meta.attr.com.android.version.markup">14</property>
    <property name="seekable">1</property>
    <property name="audio_index">0</property>
    <property name="video_index">-1</property>
    <property name="creation_time">2025-01-30T11:27:49</property>
    <property name="astream">0</property>
    <property name="shotcut:skipConvert">1</property>
    <property name="shotcut:bins">All</property>
    <property name="xml">was here</property>
    <property name="shotcut:hash">8a4779acf868a8997e6d089ddc28d304</property>
    <property name="shotcut:caption">3.m4a</property>
  </chain>
  <chain id="chain41" out="00:00:14.250">
    <property name="length">00:00:14.292</property>
    <property name="eof">pause</property>
    <property name="resource">C:/Users/dinet/Downloads/Telegram Desktop/4.m4a</property>
    <property name="mlt_service">avformat-novalidate</property>
    <property name="meta.media.nb_streams">1</property>
    <property name="meta.media.0.stream.type">audio</property>
    <property name="meta.media.0.codec.sample_fmt">fltp</property>
    <property name="meta.media.0.codec.sample_rate">44100</property>
    <property name="meta.media.0.codec.channels">1</property>
    <property name="meta.media.0.codec.layout">mono</property>
    <property name="meta.media.0.codec.name">aac</property>
    <property name="meta.media.0.codec.long_name">AAC (Advanced Audio Coding)</property>
    <property name="meta.media.0.codec.bit_rate">128005</property>
    <property name="meta.attr.0.stream.creation_time.markup">2025-01-30T11:29:42.000000Z</property>
    <property name="meta.attr.0.stream.language.markup">eng</property>
    <property name="meta.attr.0.stream.handler_name.markup">SoundHandle</property>
    <property name="meta.attr.0.stream.vendor_id.markup">[0][0][0][0]</property>
    <property name="meta.attr.major_brand.markup">3gp4</property>
    <property name="meta.attr.minor_version.markup">0</property>
    <property name="meta.attr.compatible_brands.markup">isom3gp4</property>
    <property name="meta.attr.creation_time.markup">2025-01-30T11:29:42.000000Z</property>
    <property name="meta.attr.com.android.version.markup">14</property>
    <property name="seekable">1</property>
    <property name="audio_index">0</property>
    <property name="video_index">-1</property>
    <property name="creation_time">2025-01-30T11:29:42</property>
    <property name="astream">0</property>
    <property name="shotcut:skipConvert">1</property>
    <property name="shotcut:bins">All</property>
    <property name="xml">was here</property>
    <property name="shotcut:hash">3c8a709848f70100cea85d022dcc67db</property>
    <property name="shotcut:caption">4.m4a</property>
  </chain>
  <chain id="chain42" out="00:00:07.208">
    <property name="length">00:00:07.250</property>
    <property name="eof">pause</property>
    <property name="resource">C:/Users/dinet/Downloads/Telegram Desktop/5.m4a</property>
    <property name="mlt_service">avformat-novalidate</property>
    <property name="meta.media.nb_streams">1</property>
    <property name="meta.media.0.stream.type">audio</property>
    <property name="meta.media.0.codec.sample_fmt">fltp</property>
    <property name="meta.media.0.codec.sample_rate">44100</property>
    <property name="meta.media.0.codec.channels">1</property>
    <property name="meta.media.0.codec.layout">mono</property>
    <property name="meta.media.0.codec.name">aac</property>
    <property name="meta.media.0.codec.long_name">AAC (Advanced Audio Coding)</property>
    <property name="meta.media.0.codec.bit_rate">128012</property>
    <property name="meta.attr.0.stream.creation_time.markup">2025-01-30T11:32:12.000000Z</property>
    <property name="meta.attr.0.stream.language.markup">eng</property>
    <property name="meta.attr.0.stream.handler_name.markup">SoundHandle</property>
    <property name="meta.attr.0.stream.vendor_id.markup">[0][0][0][0]</property>
    <property name="meta.attr.major_brand.markup">3gp4</property>
    <property name="meta.attr.minor_version.markup">0</property>
    <property name="meta.attr.compatible_brands.markup">isom3gp4</property>
    <property name="meta.attr.creation_time.markup">2025-01-30T11:32:12.000000Z</property>
    <property name="meta.attr.com.android.version.markup">14</property>
    <property name="seekable">1</property>
    <property name="audio_index">0</property>
    <property name="video_index">-1</property>
    <property name="creation_time">2025-01-30T11:32:12</property>
    <property name="astream">0</property>
    <property name="shotcut:skipConvert">1</property>
    <property name="shotcut:bins">All</property>
    <property name="xml">was here</property>
    <property name="shotcut:hash">2d0c4d0d114d28df3575e97b10461cf1</property>
    <property name="shotcut:caption">5.m4a</property>
  </chain>
  <chain id="chain43" out="00:00:07.208">
    <property name="length">00:00:07.250</property>
    <property name="eof">pause</property>
    <property name="resource">C:/Users/dinet/Downloads/Telegram Desktop/5.m4a</property>
    <property name="mlt_service">avformat-novalidate</property>
    <property name="meta.media.nb_streams">1</property>
    <property name="meta.media.0.stream.type">audio</property>
    <property name="meta.media.0.codec.sample_fmt">fltp</property>
    <property name="meta.media.0.codec.sample_rate">44100</property>
    <property name="meta.media.0.codec.channels">1</property>
    <property name="meta.media.0.codec.layout">mono</property>
    <property name="meta.media.0.codec.name">aac</property>
    <property name="meta.media.0.codec.long_name">AAC (Advanced Audio Coding)</property>
    <property name="meta.media.0.codec.bit_rate">128012</property>
    <property name="meta.attr.0.stream.creation_time.markup">2025-01-30T11:32:12.000000Z</property>
    <property name="meta.attr.0.stream.language.markup">eng</property>
    <property name="meta.attr.0.stream.handler_name.markup">SoundHandle</property>
    <property name="meta.attr.0.stream.vendor_id.markup">[0][0][0][0]</property>
    <property name="meta.attr.major_brand.markup">3gp4</property>
    <property name="meta.attr.minor_version.markup">0</property>
    <property name="meta.attr.compatible_brands.markup">isom3gp4</property>
    <property name="meta.attr.creation_time.markup">2025-01-30T11:32:12.000000Z</property>
    <property name="meta.attr.com.android.version.markup">14</property>
    <property name="seekable">1</property>
    <property name="audio_index">0</property>
    <property name="video_index">-1</property>
    <property name="creation_time">2025-01-30T11:32:12</property>
    <property name="astream">0</property>
    <property name="shotcut:skipConvert">1</property>
    <property name="shotcut:bins">All</property>
    <property name="xml">was here</property>
    <property name="shotcut:hash">2d0c4d0d114d28df3575e97b10461cf1</property>
    <property name="shotcut:caption">5.m4a</property>
  </chain>
  <chain id="chain44" out="00:00:17.833">
    <property name="length">00:00:17.875</property>
    <property name="eof">pause</property>
    <property name="resource">C:/Users/dinet/Downloads/Telegram Desktop/11.m4a</property>
    <property name="mlt_service">avformat-novalidate</property>
    <property name="meta.media.nb_streams">1</property>
    <property name="meta.media.0.stream.type">audio</property>
    <property name="meta.media.0.codec.sample_fmt">fltp</property>
    <property name="meta.media.0.codec.sample_rate">44100</property>
    <property name="meta.media.0.codec.channels">1</property>
    <property name="meta.media.0.codec.layout">mono</property>
    <property name="meta.media.0.codec.name">aac</property>
    <property name="meta.media.0.codec.long_name">AAC (Advanced Audio Coding)</property>
    <property name="meta.media.0.codec.bit_rate">128061</property>
    <property name="meta.attr.0.stream.creation_time.markup">2025-01-30T13:30:30.000000Z</property>
    <property name="meta.attr.0.stream.language.markup">eng</property>
    <property name="meta.attr.0.stream.handler_name.markup">SoundHandle</property>
    <property name="meta.attr.0.stream.vendor_id.markup">[0][0][0][0]</property>
    <property name="meta.attr.major_brand.markup">3gp4</property>
    <property name="meta.attr.minor_version.markup">0</property>
    <property name="meta.attr.compatible_brands.markup">isom3gp4</property>
    <property name="meta.attr.creation_time.markup">2025-01-30T13:30:30.000000Z</property>
    <property name="meta.attr.com.android.version.markup">14</property>
    <property name="seekable">1</property>
    <property name="audio_index">0</property>
    <property name="video_index">-1</property>
    <property name="creation_time">2025-01-30T13:30:30</property>
    <property name="astream">0</property>
    <property name="shotcut:skipConvert">1</property>
    <property name="shotcut:bins">All</property>
    <property name="xml">was here</property>
    <property name="shotcut:hash">e433c0e369422fdf7ff10690150a0385</property>
    <property name="shotcut:caption">11.m4a</property>
  </chain>
  <chain id="chain45" out="00:00:24.667">
    <property name="length">00:00:24.708</property>
    <property name="eof">pause</property>
    <property name="resource">C:/Users/dinet/Downloads/Telegram Desktop/6.m4a</property>
    <property name="mlt_service">avformat-novalidate</property>
    <property name="meta.media.nb_streams">1</property>
    <property name="meta.media.0.stream.type">audio</property>
    <property name="meta.media.0.codec.sample_fmt">fltp</property>
    <property name="meta.media.0.codec.sample_rate">44100</property>
    <property name="meta.media.0.codec.channels">1</property>
    <property name="meta.media.0.codec.layout">mono</property>
    <property name="meta.media.0.codec.name">aac</property>
    <property name="meta.media.0.codec.long_name">AAC (Advanced Audio Coding)</property>
    <property name="meta.media.0.codec.bit_rate">128020</property>
    <property name="meta.attr.0.stream.creation_time.markup">2025-01-30T11:34:28.000000Z</property>
    <property name="meta.attr.0.stream.language.markup">eng</property>
    <property name="meta.attr.0.stream.handler_name.markup">SoundHandle</property>
    <property name="meta.attr.0.stream.vendor_id.markup">[0][0][0][0]</property>
    <property name="meta.attr.major_brand.markup">3gp4</property>
    <property name="meta.attr.minor_version.markup">0</property>
    <property name="meta.attr.compatible_brands.markup">isom3gp4</property>
    <property name="meta.attr.creation_time.markup">2025-01-30T11:34:28.000000Z</property>
    <property name="meta.attr.com.android.version.markup">14</property>
    <property name="seekable">1</property>
    <property name="audio_index">0</property>
    <property name="video_index">-1</property>
    <property name="creation_time">2025-01-30T11:34:28</property>
    <property name="astream">0</property>
    <property name="shotcut:skipConvert">1</property>
    <property name="shotcut:bins">All</property>
    <property name="xml">was here</property>
    <property name="shotcut:hash">b15bf1c6470e90b6cb2a1762393b6baf</property>
    <property name="shotcut:caption">6.m4a</property>
  </chain>
  <chain id="chain46" out="00:00:26.208">
    <property name="length">00:00:26.250</property>
    <property name="eof">pause</property>
    <property name="resource">C:/Users/dinet/Downloads/Telegram Desktop/7.m4a</property>
    <property name="mlt_service">avformat-novalidate</property>
    <property name="meta.media.nb_streams">1</property>
    <property name="meta.media.0.stream.type">audio</property>
    <property name="meta.media.0.codec.sample_fmt">fltp</property>
    <property name="meta.media.0.codec.sample_rate">44100</property>
    <property name="meta.media.0.codec.channels">1</property>
    <property name="meta.media.0.codec.layout">mono</property>
    <property name="meta.media.0.codec.name">aac</property>
    <property name="meta.media.0.codec.long_name">AAC (Advanced Audio Coding)</property>
    <property name="meta.media.0.codec.bit_rate">128015</property>
    <property name="meta.attr.0.stream.creation_time.markup">2025-01-30T13:06:05.000000Z</property>
    <property name="meta.attr.0.stream.language.markup">eng</property>
    <property name="meta.attr.0.stream.handler_name.markup">SoundHandle</property>
    <property name="meta.attr.0.stream.vendor_id.markup">[0][0][0][0]</property>
    <property name="meta.attr.major_brand.markup">3gp4</property>
    <property name="meta.attr.minor_version.markup">0</property>
    <property name="meta.attr.compatible_brands.markup">isom3gp4</property>
    <property name="meta.attr.creation_time.markup">2025-01-30T13:06:05.000000Z</property>
    <property name="meta.attr.com.android.version.markup">14</property>
    <property name="seekable">1</property>
    <property name="audio_index">0</property>
    <property name="video_index">-1</property>
    <property name="creation_time">2025-01-30T13:06:05</property>
    <property name="astream">0</property>
    <property name="shotcut:skipConvert">1</property>
    <property name="shotcut:bins">All</property>
    <property name="xml">was here</property>
    <property name="shotcut:hash">840cfe1f2c7e1563715bb3eac98a3685</property>
    <property name="shotcut:caption">7.m4a</property>
  </chain>
  <chain id="chain47" out="00:00:20.708">
    <property name="length">00:00:20.750</property>
    <property name="eof">pause</property>
    <property name="resource">C:/Users/dinet/Downloads/Telegram Desktop/8.m4a</property>
    <property name="mlt_service">avformat-novalidate</property>
    <property name="meta.media.nb_streams">1</property>
    <property name="meta.media.0.stream.type">audio</property>
    <property name="meta.media.0.codec.sample_fmt">fltp</property>
    <property name="meta.media.0.codec.sample_rate">44100</property>
    <property name="meta.media.0.codec.channels">1</property>
    <property name="meta.media.0.codec.layout">mono</property>
    <property name="meta.media.0.codec.name">aac</property>
    <property name="meta.media.0.codec.long_name">AAC (Advanced Audio Coding)</property>
    <property name="meta.media.0.codec.bit_rate">128016</property>
    <property name="meta.attr.0.stream.creation_time.markup">2025-01-30T13:15:37.000000Z</property>
    <property name="meta.attr.0.stream.language.markup">eng</property>
    <property name="meta.attr.0.stream.handler_name.markup">SoundHandle</property>
    <property name="meta.attr.0.stream.vendor_id.markup">[0][0][0][0]</property>
    <property name="meta.attr.major_brand.markup">3gp4</property>
    <property name="meta.attr.minor_version.markup">0</property>
    <property name="meta.attr.compatible_brands.markup">isom3gp4</property>
    <property name="meta.attr.creation_time.markup">2025-01-30T13:15:37.000000Z</property>
    <property name="meta.attr.com.android.version.markup">14</property>
    <property name="seekable">1</property>
    <property name="audio_index">0</property>
    <property name="video_index">-1</property>
    <property name="creation_time">2025-01-30T13:15:37</property>
    <property name="astream">0</property>
    <property name="shotcut:skipConvert">1</property>
    <property name="shotcut:bins">All</property>
    <property name="xml">was here</property>
    <property name="shotcut:hash">3ea1fd7d3b7ca8a8f43cd3a8f6be6a5b</property>
    <property name="shotcut:caption">8.m4a</property>
  </chain>
  <chain id="chain48" out="00:00:05.708">
    <property name="length">00:00:05.750</property>
    <property name="eof">pause</property>
    <property name="resource">C:/Users/dinet/Downloads/Telegram Desktop/10.m4a</property>
    <property name="mlt_service">avformat-novalidate</property>
    <property name="meta.media.nb_streams">1</property>
    <property name="meta.media.0.stream.type">audio</property>
    <property name="meta.media.0.codec.sample_fmt">fltp</property>
    <property name="meta.media.0.codec.sample_rate">44100</property>
    <property name="meta.media.0.codec.channels">1</property>
    <property name="meta.media.0.codec.layout">mono</property>
    <property name="meta.media.0.codec.name">aac</property>
    <property name="meta.media.0.codec.long_name">AAC (Advanced Audio Coding)</property>
    <property name="meta.media.0.codec.bit_rate">128018</property>
    <property name="meta.attr.0.stream.creation_time.markup">2025-01-30T13:22:03.000000Z</property>
    <property name="meta.attr.0.stream.language.markup">eng</property>
    <property name="meta.attr.0.stream.handler_name.markup">SoundHandle</property>
    <property name="meta.attr.0.stream.vendor_id.markup">[0][0][0][0]</property>
    <property name="meta.attr.major_brand.markup">3gp4</property>
    <property name="meta.attr.minor_version.markup">0</property>
    <property name="meta.attr.compatible_brands.markup">isom3gp4</property>
    <property name="meta.attr.creation_time.markup">2025-01-30T13:22:03.000000Z</property>
    <property name="meta.attr.com.android.version.markup">14</property>
    <property name="seekable">1</property>
    <property name="audio_index">0</property>
    <property name="video_index">-1</property>
    <property name="creation_time">2025-01-30T13:22:03</property>
    <property name="astream">0</property>
    <property name="shotcut:skipConvert">1</property>
    <property name="shotcut:bins">All</property>
    <property name="xml">was here</property>
    <property name="shotcut:hash">4e5c4a6f6ccd5e67ef42d234070e4fbf</property>
    <property name="shotcut:caption">10.m4a</property>
  </chain>
  <chain id="chain49" out="00:00:04.042">
    <property name="length">00:00:04.083</property>
    <property name="eof">pause</property>
    <property name="resource">C:/Users/dinet/Downloads/Telegram Desktop/12.m4a</property>
    <property name="mlt_service">avformat-novalidate</property>
    <property name="meta.media.nb_streams">1</property>
    <property name="meta.media.0.stream.type">audio</property>
    <property name="meta.media.0.codec.sample_fmt">fltp</property>
    <property name="meta.media.0.codec.sample_rate">44100</property>
    <property name="meta.media.0.codec.channels">1</property>
    <property name="meta.media.0.codec.layout">mono</property>
    <property name="meta.media.0.codec.name">aac</property>
    <property name="meta.media.0.codec.long_name">AAC (Advanced Audio Coding)</property>
    <property name="meta.media.0.codec.bit_rate">128286</property>
    <property name="meta.attr.0.stream.creation_time.markup">2025-01-30T13:32:43.000000Z</property>
    <property name="meta.attr.0.stream.language.markup">eng</property>
    <property name="meta.attr.0.stream.handler_name.markup">SoundHandle</property>
    <property name="meta.attr.0.stream.vendor_id.markup">[0][0][0][0]</property>
    <property name="meta.attr.major_brand.markup">3gp4</property>
    <property name="meta.attr.minor_version.markup">0</property>
    <property name="meta.attr.compatible_brands.markup">isom3gp4</property>
    <property name="meta.attr.creation_time.markup">2025-01-30T13:32:43.000000Z</property>
    <property name="meta.attr.com.android.version.markup">14</property>
    <property name="seekable">1</property>
    <property name="audio_index">0</property>
    <property name="video_index">-1</property>
    <property name="creation_time">2025-01-30T13:32:43</property>
    <property name="astream">0</property>
    <property name="shotcut:skipConvert">1</property>
    <property name="shotcut:bins">All</property>
    <property name="xml">was here</property>
    <property name="shotcut:hash">557588947116ebe03dfb2f0c9236c501</property>
    <property name="shotcut:caption">12.m4a</property>
  </chain>
  <chain id="chain50" out="00:00:17.375">
    <property name="length">00:00:17.417</property>
    <property name="eof">pause</property>
    <property name="resource">C:/Users/dinet/Downloads/Telegram Desktop/13.m4a</property>
    <property name="mlt_service">avformat-novalidate</property>
    <property name="meta.media.nb_streams">1</property>
    <property name="meta.media.0.stream.type">audio</property>
    <property name="meta.media.0.codec.sample_fmt">fltp</property>
    <property name="meta.media.0.codec.sample_rate">44100</property>
    <property name="meta.media.0.codec.channels">1</property>
    <property name="meta.media.0.codec.layout">mono</property>
    <property name="meta.media.0.codec.name">aac</property>
    <property name="meta.media.0.codec.long_name">AAC (Advanced Audio Coding)</property>
    <property name="meta.media.0.codec.bit_rate">128015</property>
    <property name="meta.attr.0.stream.creation_time.markup">2025-01-30T13:33:41.000000Z</property>
    <property name="meta.attr.0.stream.language.markup">eng</property>
    <property name="meta.attr.0.stream.handler_name.markup">SoundHandle</property>
    <property name="meta.attr.0.stream.vendor_id.markup">[0][0][0][0]</property>
    <property name="meta.attr.major_brand.markup">3gp4</property>
    <property name="meta.attr.minor_version.markup">0</property>
    <property name="meta.attr.compatible_brands.markup">isom3gp4</property>
    <property name="meta.attr.creation_time.markup">2025-01-30T13:33:41.000000Z</property>
    <property name="meta.attr.com.android.version.markup">14</property>
    <property name="seekable">1</property>
    <property name="audio_index">0</property>
    <property name="video_index">-1</property>
    <property name="creation_time">2025-01-30T13:33:41</property>
    <property name="astream">0</property>
    <property name="shotcut:skipConvert">1</property>
    <property name="shotcut:bins">All</property>
    <property name="xml">was here</property>
    <property name="shotcut:hash">7eed12a6b208f2be8f779eee4672ef56</property>
    <property name="shotcut:caption">13.m4a</property>
  </chain>
  <chain id="chain51" out="00:00:07.583">
    <property name="length">00:00:07.625</property>
    <property name="eof">pause</property>
    <property name="resource">C:/Users/dinet/Downloads/Telegram Desktop/14.m4a</property>
    <property name="mlt_service">avformat-novalidate</property>
    <property name="meta.media.nb_streams">1</property>
    <property name="meta.media.0.stream.type">audio</property>
    <property name="meta.media.0.codec.sample_fmt">fltp</property>
    <property name="meta.media.0.codec.sample_rate">44100</property>
    <property name="meta.media.0.codec.channels">1</property>
    <property name="meta.media.0.codec.layout">mono</property>
    <property name="meta.media.0.codec.name">aac</property>
    <property name="meta.media.0.codec.long_name">AAC (Advanced Audio Coding)</property>
    <property name="meta.media.0.codec.bit_rate">128031</property>
    <property name="meta.attr.0.stream.creation_time.markup">2025-01-30T13:37:57.000000Z</property>
    <property name="meta.attr.0.stream.language.markup">eng</property>
    <property name="meta.attr.0.stream.handler_name.markup">SoundHandle</property>
    <property name="meta.attr.0.stream.vendor_id.markup">[0][0][0][0]</property>
    <property name="meta.attr.major_brand.markup">3gp4</property>
    <property name="meta.attr.minor_version.markup">0</property>
    <property name="meta.attr.compatible_brands.markup">isom3gp4</property>
    <property name="meta.attr.creation_time.markup">2025-01-30T13:37:57.000000Z</property>
    <property name="meta.attr.com.android.version.markup">14</property>
    <property name="seekable">1</property>
    <property name="audio_index">0</property>
    <property name="video_index">-1</property>
    <property name="creation_time">2025-01-30T13:37:57</property>
    <property name="astream">0</property>
    <property name="shotcut:skipConvert">1</property>
    <property name="shotcut:bins">All</property>
    <property name="xml">was here</property>
    <property name="shotcut:hash">ec0550ea3c6dedcd64e5c1863b52fb7e</property>
    <property name="shotcut:caption">14.m4a</property>
  </chain>
  <chain id="chain52" out="00:00:13.250">
    <property name="length">00:00:13.292</property>
    <property name="eof">pause</property>
    <property name="resource">C:/Users/dinet/Downloads/Telegram Desktop/15.m4a</property>
    <property name="mlt_service">avformat-novalidate</property>
    <property name="meta.media.nb_streams">1</property>
    <property name="meta.media.0.stream.type">audio</property>
    <property name="meta.media.0.codec.sample_fmt">fltp</property>
    <property name="meta.media.0.codec.sample_rate">44100</property>
    <property name="meta.media.0.codec.channels">1</property>
    <property name="meta.media.0.codec.layout">mono</property>
    <property name="meta.media.0.codec.name">aac</property>
    <property name="meta.media.0.codec.long_name">AAC (Advanced Audio Coding)</property>
    <property name="meta.media.0.codec.bit_rate">128021</property>
    <property name="meta.attr.0.stream.creation_time.markup">2025-01-30T13:43:05.000000Z</property>
    <property name="meta.attr.0.stream.language.markup">eng</property>
    <property name="meta.attr.0.stream.handler_name.markup">SoundHandle</property>
    <property name="meta.attr.0.stream.vendor_id.markup">[0][0][0][0]</property>
    <property name="meta.attr.major_brand.markup">3gp4</property>
    <property name="meta.attr.minor_version.markup">0</property>
    <property name="meta.attr.compatible_brands.markup">isom3gp4</property>
    <property name="meta.attr.creation_time.markup">2025-01-30T13:43:05.000000Z</property>
    <property name="meta.attr.com.android.version.markup">14</property>
    <property name="seekable">1</property>
    <property name="audio_index">0</property>
    <property name="video_index">-1</property>
    <property name="creation_time">2025-01-30T13:43:05</property>
    <property name="astream">0</property>
    <property name="shotcut:skipConvert">1</property>
    <property name="shotcut:bins">All</property>
    <property name="xml">was here</property>
    <property name="shotcut:hash">22119f56a0a4b27cbdd996193f09c172</property>
    <property name="shotcut:caption">15.m4a</property>
  </chain>
  <chain id="chain53" out="00:00:14.208">
    <property name="length">00:00:14.250</property>
    <property name="eof">pause</property>
    <property name="resource">C:/Users/dinet/Downloads/Telegram Desktop/16.m4a</property>
    <property name="mlt_service">avformat-novalidate</property>
    <property name="meta.media.nb_streams">1</property>
    <property name="meta.media.0.stream.type">audio</property>
    <property name="meta.media.0.codec.sample_fmt">fltp</property>
    <property name="meta.media.0.codec.sample_rate">44100</property>
    <property name="meta.media.0.codec.channels">1</property>
    <property name="meta.media.0.codec.layout">mono</property>
    <property name="meta.media.0.codec.name">aac</property>
    <property name="meta.media.0.codec.long_name">AAC (Advanced Audio Coding)</property>
    <property name="meta.media.0.codec.bit_rate">128058</property>
    <property name="meta.attr.0.stream.creation_time.markup">2025-01-30T14:02:33.000000Z</property>
    <property name="meta.attr.0.stream.language.markup">eng</property>
    <property name="meta.attr.0.stream.handler_name.markup">SoundHandle</property>
    <property name="meta.attr.0.stream.vendor_id.markup">[0][0][0][0]</property>
    <property name="meta.attr.major_brand.markup">3gp4</property>
    <property name="meta.attr.minor_version.markup">0</property>
    <property name="meta.attr.compatible_brands.markup">isom3gp4</property>
    <property name="meta.attr.creation_time.markup">2025-01-30T14:02:33.000000Z</property>
    <property name="meta.attr.com.android.version.markup">14</property>
    <property name="seekable">1</property>
    <property name="audio_index">0</property>
    <property name="video_index">-1</property>
    <property name="creation_time">2025-01-30T14:02:33</property>
    <property name="astream">0</property>
    <property name="shotcut:skipConvert">1</property>
    <property name="shotcut:bins">All</property>
    <property name="xml">was here</property>
    <property name="shotcut:hash">ba6b4b92d5176af6fa6aa5088c446729</property>
    <property name="shotcut:caption">16.m4a</property>
  </chain>
  <chain id="chain54" out="00:00:12.625">
    <property name="length">00:00:12.667</property>
    <property name="eof">pause</property>
    <property name="resource">C:/Users/dinet/Downloads/Telegram Desktop/17.m4a</property>
    <property name="mlt_service">avformat-novalidate</property>
    <property name="meta.media.nb_streams">1</property>
    <property name="meta.media.0.stream.type">audio</property>
    <property name="meta.media.0.codec.sample_fmt">fltp</property>
    <property name="meta.media.0.codec.sample_rate">44100</property>
    <property name="meta.media.0.codec.channels">1</property>
    <property name="meta.media.0.codec.layout">mono</property>
    <property name="meta.media.0.codec.name">aac</property>
    <property name="meta.media.0.codec.long_name">AAC (Advanced Audio Coding)</property>
    <property name="meta.media.0.codec.bit_rate">128051</property>
    <property name="meta.attr.0.stream.creation_time.markup">2025-01-30T14:05:33.000000Z</property>
    <property name="meta.attr.0.stream.language.markup">eng</property>
    <property name="meta.attr.0.stream.handler_name.markup">SoundHandle</property>
    <property name="meta.attr.0.stream.vendor_id.markup">[0][0][0][0]</property>
    <property name="meta.attr.major_brand.markup">3gp4</property>
    <property name="meta.attr.minor_version.markup">0</property>
    <property name="meta.attr.compatible_brands.markup">isom3gp4</property>
    <property name="meta.attr.creation_time.markup">2025-01-30T14:05:33.000000Z</property>
    <property name="meta.attr.com.android.version.markup">14</property>
    <property name="seekable">1</property>
    <property name="audio_index">0</property>
    <property name="video_index">-1</property>
    <property name="creation_time">2025-01-30T14:05:33</property>
    <property name="astream">0</property>
    <property name="shotcut:skipConvert">1</property>
    <property name="shotcut:bins">All</property>
    <property name="xml">was here</property>
    <property name="shotcut:hash">bfa94a5c6dbf3185fe8894c750c0f55c</property>
    <property name="shotcut:caption">17.m4a</property>
  </chain>
  <chain id="chain55" out="00:00:10.250">
    <property name="length">00:00:10.292</property>
    <property name="eof">pause</property>
    <property name="resource">C:/Users/dinet/Downloads/Telegram Desktop/19.m4a</property>
    <property name="mlt_service">avformat-novalidate</property>
    <property name="meta.media.nb_streams">1</property>
    <property name="meta.media.0.stream.type">audio</property>
    <property name="meta.media.0.codec.sample_fmt">fltp</property>
    <property name="meta.media.0.codec.sample_rate">44100</property>
    <property name="meta.media.0.codec.channels">1</property>
    <property name="meta.media.0.codec.layout">mono</property>
    <property name="meta.media.0.codec.name">aac</property>
    <property name="meta.media.0.codec.long_name">AAC (Advanced Audio Coding)</property>
    <property name="meta.media.0.codec.bit_rate">128036</property>
    <property name="meta.attr.0.stream.creation_time.markup">2025-01-30T14:06:45.000000Z</property>
    <property name="meta.attr.0.stream.language.markup">eng</property>
    <property name="meta.attr.0.stream.handler_name.markup">SoundHandle</property>
    <property name="meta.attr.0.stream.vendor_id.markup">[0][0][0][0]</property>
    <property name="meta.attr.major_brand.markup">3gp4</property>
    <property name="meta.attr.minor_version.markup">0</property>
    <property name="meta.attr.compatible_brands.markup">isom3gp4</property>
    <property name="meta.attr.creation_time.markup">2025-01-30T14:06:45.000000Z</property>
    <property name="meta.attr.com.android.version.markup">14</property>
    <property name="seekable">1</property>
    <property name="audio_index">0</property>
    <property name="video_index">-1</property>
    <property name="creation_time">2025-01-30T14:06:45</property>
    <property name="astream">0</property>
    <property name="shotcut:skipConvert">1</property>
    <property name="shotcut:bins">All</property>
    <property name="xml">was here</property>
    <property name="shotcut:hash">5bdef04341da32d5394da4eaaa261901</property>
    <property name="shotcut:caption">19.m4a</property>
  </chain>
  <chain id="chain56" out="00:00:15.917">
    <property name="length">00:00:15.958</property>
    <property name="eof">pause</property>
    <property name="resource">C:/Users/dinet/Downloads/Telegram Desktop/20.m4a</property>
    <property name="mlt_service">avformat-novalidate</property>
    <property name="meta.media.nb_streams">1</property>
    <property name="meta.media.0.stream.type">audio</property>
    <property name="meta.media.0.codec.sample_fmt">fltp</property>
    <property name="meta.media.0.codec.sample_rate">44100</property>
    <property name="meta.media.0.codec.channels">1</property>
    <property name="meta.media.0.codec.layout">mono</property>
    <property name="meta.media.0.codec.name">aac</property>
    <property name="meta.media.0.codec.long_name">AAC (Advanced Audio Coding)</property>
    <property name="meta.media.0.codec.bit_rate">128007</property>
    <property name="meta.attr.0.stream.creation_time.markup">2025-01-30T14:19:27.000000Z</property>
    <property name="meta.attr.0.stream.language.markup">eng</property>
    <property name="meta.attr.0.stream.handler_name.markup">SoundHandle</property>
    <property name="meta.attr.0.stream.vendor_id.markup">[0][0][0][0]</property>
    <property name="meta.attr.major_brand.markup">3gp4</property>
    <property name="meta.attr.minor_version.markup">0</property>
    <property name="meta.attr.compatible_brands.markup">isom3gp4</property>
    <property name="meta.attr.creation_time.markup">2025-01-30T14:19:27.000000Z</property>
    <property name="meta.attr.com.android.version.markup">14</property>
    <property name="seekable">1</property>
    <property name="audio_index">0</property>
    <property name="video_index">-1</property>
    <property name="creation_time">2025-01-30T14:19:27</property>
    <property name="astream">0</property>
    <property name="shotcut:skipConvert">1</property>
    <property name="shotcut:bins">All</property>
    <property name="xml">was here</property>
    <property name="shotcut:hash">23624477570c39661c10401eae56e6ae</property>
    <property name="shotcut:caption">20.m4a</property>
  </chain>
  <chain id="chain57" out="00:00:24.542">
    <property name="length">00:00:24.583</property>
    <property name="eof">pause</property>
    <property name="resource">C:/Users/dinet/Downloads/Telegram Desktop/21.m4a</property>
    <property name="mlt_service">avformat-novalidate</property>
    <property name="meta.media.nb_streams">1</property>
    <property name="meta.media.0.stream.type">audio</property>
    <property name="meta.media.0.codec.sample_fmt">fltp</property>
    <property name="meta.media.0.codec.sample_rate">44100</property>
    <property name="meta.media.0.codec.channels">1</property>
    <property name="meta.media.0.codec.layout">mono</property>
    <property name="meta.media.0.codec.name">aac</property>
    <property name="meta.media.0.codec.long_name">AAC (Advanced Audio Coding)</property>
    <property name="meta.media.0.codec.bit_rate">128015</property>
    <property name="meta.attr.0.stream.creation_time.markup">2025-01-30T14:20:46.000000Z</property>
    <property name="meta.attr.0.stream.language.markup">eng</property>
    <property name="meta.attr.0.stream.vendor_id.markup">[0][0][0][0]</property>
    <property name="meta.attr.major_brand.markup">3gp4</property>
    <property name="meta.attr.minor_version.markup">0</property>
    <property name="meta.attr.compatible_brands.markup">isom3gp4</property>
    <property name="meta.attr.creation_time.markup">2025-01-30T14:21:17.000000Z</property>
    <property name="seekable">1</property>
    <property name="audio_index">0</property>
    <property name="video_index">-1</property>
    <property name="creation_time">2025-01-30T14:21:17</property>
    <property name="astream">0</property>
    <property name="shotcut:skipConvert">1</property>
    <property name="shotcut:bins">All</property>
    <property name="xml">was here</property>
    <property name="shotcut:hash">938d9d8e4775389c6c875a60d1c902c2</property>
    <property name="shotcut:caption">21.m4a</property>
  </chain>
  <chain id="chain58" out="00:00:03.833">
    <property name="length">00:00:03.875</property>
    <property name="eof">pause</property>
    <property name="resource">C:/Users/dinet/Downloads/Telegram Desktop/22.m4a</property>
    <property name="mlt_service">avformat-novalidate</property>
    <property name="meta.media.nb_streams">1</property>
    <property name="meta.media.0.stream.type">audio</property>
    <property name="meta.media.0.codec.sample_fmt">fltp</property>
    <property name="meta.media.0.codec.sample_rate">44100</property>
    <property name="meta.media.0.codec.channels">1</property>
    <property name="meta.media.0.codec.layout">mono</property>
    <property name="meta.media.0.codec.name">aac</property>
    <property name="meta.media.0.codec.long_name">AAC (Advanced Audio Coding)</property>
    <property name="meta.media.0.codec.bit_rate">128082</property>
    <property name="meta.attr.0.stream.creation_time.markup">2025-01-30T14:21:59.000000Z</property>
    <property name="meta.attr.0.stream.language.markup">eng</property>
    <property name="meta.attr.0.stream.handler_name.markup">SoundHandle</property>
    <property name="meta.attr.0.stream.vendor_id.markup">[0][0][0][0]</property>
    <property name="meta.attr.major_brand.markup">3gp4</property>
    <property name="meta.attr.minor_version.markup">0</property>
    <property name="meta.attr.compatible_brands.markup">isom3gp4</property>
    <property name="meta.attr.creation_time.markup">2025-01-30T14:21:59.000000Z</property>
    <property name="meta.attr.com.android.version.markup">14</property>
    <property name="seekable">1</property>
    <property name="audio_index">0</property>
    <property name="video_index">-1</property>
    <property name="creation_time">2025-01-30T14:21:59</property>
    <property name="astream">0</property>
    <property name="shotcut:skipConvert">1</property>
    <property name="shotcut:bins">All</property>
    <property name="xml">was here</property>
    <property name="shotcut:hash">7780d3aaaa18d3830498aba648b1e0ff</property>
    <property name="shotcut:caption">22.m4a</property>
  </chain>
  <chain id="chain59" out="00:00:05.792">
    <property name="length">00:00:05.833</property>
    <property name="eof">pause</property>
    <property name="resource">C:/Users/dinet/Downloads/Telegram Desktop/23.m4a</property>
    <property name="mlt_service">avformat-novalidate</property>
    <property name="meta.media.nb_streams">1</property>
    <property name="meta.media.0.stream.type">audio</property>
    <property name="meta.media.0.codec.sample_fmt">fltp</property>
    <property name="meta.media.0.codec.sample_rate">44100</property>
    <property name="meta.media.0.codec.channels">1</property>
    <property name="meta.media.0.codec.layout">mono</property>
    <property name="meta.media.0.codec.name">aac</property>
    <property name="meta.media.0.codec.long_name">AAC (Advanced Audio Coding)</property>
    <property name="meta.media.0.codec.bit_rate">128050</property>
    <property name="meta.attr.0.stream.creation_time.markup">2025-01-30T14:24:10.000000Z</property>
    <property name="meta.attr.0.stream.language.markup">eng</property>
    <property name="meta.attr.0.stream.handler_name.markup">SoundHandle</property>
    <property name="meta.attr.0.stream.vendor_id.markup">[0][0][0][0]</property>
    <property name="meta.attr.major_brand.markup">3gp4</property>
    <property name="meta.attr.minor_version.markup">0</property>
    <property name="meta.attr.compatible_brands.markup">isom3gp4</property>
    <property name="meta.attr.creation_time.markup">2025-01-30T14:24:10.000000Z</property>
    <property name="meta.attr.com.android.version.markup">14</property>
    <property name="seekable">1</property>
    <property name="audio_index">0</property>
    <property name="video_index">-1</property>
    <property name="creation_time">2025-01-30T14:24:10</property>
    <property name="astream">0</property>
    <property name="shotcut:skipConvert">1</property>
    <property name="shotcut:bins">All</property>
    <property name="xml">was here</property>
    <property name="shotcut:hash">a051a19331c8825034124d313375cb6e</property>
    <property name="shotcut:caption">23.m4a</property>
  </chain>
  <chain id="chain60" out="00:00:14.625">
    <property name="length">00:00:14.667</property>
    <property name="eof">pause</property>
    <property name="resource">C:/Users/dinet/Downloads/Telegram Desktop/25.m4a</property>
    <property name="mlt_service">avformat-novalidate</property>
    <property name="meta.media.nb_streams">1</property>
    <property name="meta.media.0.stream.type">audio</property>
    <property name="meta.media.0.codec.sample_fmt">fltp</property>
    <property name="meta.media.0.codec.sample_rate">44100</property>
    <property name="meta.media.0.codec.channels">1</property>
    <property name="meta.media.0.codec.layout">mono</property>
    <property name="meta.media.0.codec.name">aac</property>
    <property name="meta.media.0.codec.long_name">AAC (Advanced Audio Coding)</property>
    <property name="meta.media.0.codec.bit_rate">128015</property>
    <property name="meta.attr.0.stream.creation_time.markup">2025-01-30T14:26:56.000000Z</property>
    <property name="meta.attr.0.stream.language.markup">eng</property>
    <property name="meta.attr.0.stream.handler_name.markup">SoundHandle</property>
    <property name="meta.attr.0.stream.vendor_id.markup">[0][0][0][0]</property>
    <property name="meta.attr.major_brand.markup">3gp4</property>
    <property name="meta.attr.minor_version.markup">0</property>
    <property name="meta.attr.compatible_brands.markup">isom3gp4</property>
    <property name="meta.attr.creation_time.markup">2025-01-30T14:26:56.000000Z</property>
    <property name="meta.attr.com.android.version.markup">14</property>
    <property name="seekable">1</property>
    <property name="audio_index">0</property>
    <property name="video_index">-1</property>
    <property name="creation_time">2025-01-30T14:26:56</property>
    <property name="astream">0</property>
    <property name="shotcut:skipConvert">1</property>
    <property name="shotcut:bins">All</property>
    <property name="xml">was here</property>
    <property name="shotcut:hash">b007762bb174034a62a24f99c88a3973</property>
    <property name="shotcut:caption">25.m4a</property>
  </chain>
  <chain id="chain61" out="00:00:04.958">
    <property name="length">00:00:05.000</property>
    <property name="eof">pause</property>
    <property name="resource">C:/Users/dinet/Downloads/Telegram Desktop/26.m4a</property>
    <property name="mlt_service">avformat-novalidate</property>
    <property name="meta.media.nb_streams">1</property>
    <property name="meta.media.0.stream.type">audio</property>
    <property name="meta.media.0.codec.sample_fmt">fltp</property>
    <property name="meta.media.0.codec.sample_rate">44100</property>
    <property name="meta.media.0.codec.channels">1</property>
    <property name="meta.media.0.codec.layout">mono</property>
    <property name="meta.media.0.codec.name">aac</property>
    <property name="meta.media.0.codec.long_name">AAC (Advanced Audio Coding)</property>
    <property name="meta.media.0.codec.bit_rate">128076</property>
    <property name="meta.attr.0.stream.creation_time.markup">2025-01-30T14:28:19.000000Z</property>
    <property name="meta.attr.0.stream.language.markup">eng</property>
    <property name="meta.attr.0.stream.handler_name.markup">SoundHandle</property>
    <property name="meta.attr.0.stream.vendor_id.markup">[0][0][0][0]</property>
    <property name="meta.attr.major_brand.markup">3gp4</property>
    <property name="meta.attr.minor_version.markup">0</property>
    <property name="meta.attr.compatible_brands.markup">isom3gp4</property>
    <property name="meta.attr.creation_time.markup">2025-01-30T14:28:19.000000Z</property>
    <property name="meta.attr.com.android.version.markup">14</property>
    <property name="seekable">1</property>
    <property name="audio_index">0</property>
    <property name="video_index">-1</property>
    <property name="creation_time">2025-01-30T14:28:19</property>
    <property name="astream">0</property>
    <property name="shotcut:skipConvert">1</property>
    <property name="shotcut:bins">All</property>
    <property name="xml">was here</property>
    <property name="shotcut:hash">1e3bae6b9d504685677438cfeab45f40</property>
    <property name="shotcut:caption">26.m4a</property>
  </chain>
  <chain id="chain62" out="00:00:02.667">
    <property name="length">00:00:02.708</property>
    <property name="eof">pause</property>
    <property name="resource">C:/Users/dinet/Downloads/Telegram Desktop/30.m4a</property>
    <property name="mlt_service">avformat-novalidate</property>
    <property name="meta.media.nb_streams">1</property>
    <property name="meta.media.0.stream.type">audio</property>
    <property name="meta.media.0.codec.sample_fmt">fltp</property>
    <property name="meta.media.0.codec.sample_rate">44100</property>
    <property name="meta.media.0.codec.channels">1</property>
    <property name="meta.media.0.codec.layout">mono</property>
    <property name="meta.media.0.codec.name">aac</property>
    <property name="meta.media.0.codec.long_name">AAC (Advanced Audio Coding)</property>
    <property name="meta.media.0.codec.bit_rate">128055</property>
    <property name="meta.attr.0.stream.creation_time.markup">2025-01-30T14:31:20.000000Z</property>
    <property name="meta.attr.0.stream.language.markup">eng</property>
    <property name="meta.attr.0.stream.handler_name.markup">SoundHandle</property>
    <property name="meta.attr.0.stream.vendor_id.markup">[0][0][0][0]</property>
    <property name="meta.attr.major_brand.markup">3gp4</property>
    <property name="meta.attr.minor_version.markup">0</property>
    <property name="meta.attr.compatible_brands.markup">isom3gp4</property>
    <property name="meta.attr.creation_time.markup">2025-01-30T14:31:20.000000Z</property>
    <property name="meta.attr.com.android.version.markup">14</property>
    <property name="seekable">1</property>
    <property name="audio_index">0</property>
    <property name="video_index">-1</property>
    <property name="creation_time">2025-01-30T14:31:20</property>
    <property name="astream">0</property>
    <property name="shotcut:skipConvert">1</property>
    <property name="shotcut:bins">All</property>
    <property name="xml">was here</property>
    <property name="shotcut:hash">aa10364451aabdee66fe51f3e8ac3615</property>
    <property name="shotcut:caption">30.m4a</property>
  </chain>
  <playlist id="playlist1">
    <property name="shotcut:audio">1</property>
    <property name="shotcut:name">A1</property>
    <entry producer="chain38" in="00:00:00.000" out="00:00:17.500"/>
    <entry producer="chain39" in="00:00:00.000" out="00:00:19.458"/>
    <blank length="00:00:03.708"/>
    <entry producer="chain40" in="00:00:00.000" out="00:00:31.250"/>
    <blank length="00:00:02.708"/>
    <entry producer="chain41" in="00:00:00.000" out="00:00:14.250"/>
    <blank length="00:00:04.917"/>
    <entry producer="chain42" in="00:00:00.000" out="00:00:04.375"/>
    <blank length="00:00:01.792"/>
    <entry producer="chain43" in="00:00:04.417" out="00:00:07.208"/>
    <blank length="00:00:02.000"/>
    <entry producer="chain44" in="00:00:00.000" out="00:00:17.833"/>
    <entry producer="chain45" in="00:00:05.625" out="00:00:24.667"/>
    <entry producer="chain46" in="00:00:00.000" out="00:00:26.208"/>
    <entry producer="chain47" in="00:00:00.000" out="00:00:20.708"/>
    <entry producer="chain48" in="00:00:00.000" out="00:00:05.708"/>
    <entry producer="chain49" in="00:00:00.000" out="00:00:04.042"/>
    <entry producer="chain50" in="00:00:00.000" out="00:00:17.375"/>
    <entry producer="chain51" in="00:00:00.000" out="00:00:07.583"/>
    <entry producer="chain52" in="00:00:00.000" out="00:00:13.250"/>
    <entry producer="chain53" in="00:00:00.000" out="00:00:14.208"/>
    <entry producer="chain54" in="00:00:01.542" out="00:00:12.625"/>
    <entry producer="chain55" in="00:00:00.000" out="00:00:10.250"/>
    <entry producer="chain56" in="00:00:00.000" out="00:00:15.917"/>
    <entry producer="chain57" in="00:00:00.000" out="00:00:19.667"/>
    <entry producer="chain58" in="00:00:00.000" out="00:00:03.833"/>
    <entry producer="chain59" in="00:00:00.000" out="00:00:05.792"/>
    <entry producer="chain60" in="00:00:00.000" out="00:00:14.625"/>
    <entry producer="chain61" in="00:00:00.000" out="00:00:04.958"/>
    <entry producer="chain62" in="00:00:00.000" out="00:00:02.667"/>
  </playlist>
  <tractor id="tractor0" title="Shotcut version 25.01.25" in="00:00:00.000" out="00:05:40.500">
    <property name="shotcut">1</property>
    <property name="shotcut:projectAudioChannels">2</property>
    <property name="shotcut:projectFolder">1</property>
    <property name="shotcut:scaleFactor">1.41493</property>
    <track producer="background"/>
    <track producer="playlist0" hide="audio"/>
    <track producer="playlist1" hide="video"/>
    <transition id="transition0">
      <property name="a_track">0</property>
      <property name="b_track">1</property>
      <property name="mlt_service">mix</property>
      <property name="always_active">1</property>
      <property name="sum">1</property>
    </transition>
    <transition id="transition1">
      <property name="a_track">0</property>
      <property name="b_track">1</property>
      <property name="version">0.1</property>
      <property name="mlt_service">frei0r.cairoblend</property>
      <property name="threads">0</property>
      <property name="disable">1</property>
    </transition>
    <transition id="transition2">
      <property name="a_track">0</property>
      <property name="b_track">2</property>
      <property name="mlt_service">mix</property>
      <property name="always_active">1</property>
      <property name="sum">1</property>
    </transition>
  </tractor>
</mlt>
